<?xml version="1.0" encoding="utf-8"?>
<!-- Generator: Adobe Illustrator 19.0.0, SVG Export Plug-In . SVG Version: 6.00 Build 0)  -->
<svg version="1.1" id="Layer_1" xmlns="http://www.w3.org/2000/svg" xmlns:xlink="http://www.w3.org/1999/xlink" x="0px" y="0px"
	 viewBox="0 0 612 792" style="enable-background:new 0 0 612 792;" xml:space="preserve">
<style type="text/css">
	.st0{fill:url(#XMLID_59_);}
	.st1{fill:url(#XMLID_60_);}
	.st2{fill:url(#XMLID_65_);}
	.st3{fill:url(#XMLID_66_);}
	.st4{fill:url(#XMLID_67_);stroke:#FFFFFF;stroke-miterlimit:10;}
	.st5{fill:url(#XMLID_68_);stroke:#FFFFFF;stroke-miterlimit:10;}
	.st6{fill:url(#XMLID_69_);stroke:#FFFFFF;stroke-miterlimit:10;}
	.st7{fill:#FFFFFF;}
</style>
<g id="XMLID_8_">
	<linearGradient id="XMLID_59_" gradientUnits="userSpaceOnUse" x1="232.3758" y1="318.2089" x2="560.2075" y2="318.2089">
		<stop  offset="0" style="stop-color:#FFFFFF"/>
		<stop  offset="0.6847" style="stop-color:#006CB7;stop-opacity:0.2"/>
	</linearGradient>
	<path id="XMLID_62_" class="st0" d="M560.2,201.7c-2.3,39,4.1,77.6-6.9,115.5c-21.6,74.6-90.1,121.9-170.1,117.2
		c-73-4.4-137.1-62.4-147.2-136.6c-4.3-31.3-2.6-63.4-3.6-96C342.2,201.7,450.5,201.7,560.2,201.7z M396.1,397.7
		c44,0.1,80.3-35.3,80.5-78.7c0.2-45-35.1-81-79.8-81.1c-43.7-0.2-79.9,35.6-80.1,79.1C316.5,361.5,352,397.6,396.1,397.7z"/>
	<linearGradient id="XMLID_60_" gradientUnits="userSpaceOnUse" x1="197.3472" y1="149.2093" x2="595.4719" y2="149.2093">
		<stop  offset="0" style="stop-color:#FFFFFF"/>
		<stop  offset="0.6847" style="stop-color:#006CB7;stop-opacity:0.2"/>
	</linearGradient>
	<path id="XMLID_61_" class="st1" d="M198.5,110.9c131.9,0,264.1,0,396.7,0c0,20.2,0.7,40.1-0.3,60c-0.5,9.9-9.1,16.1-19.2,16.6
		c-4.3,0.2-8.7,0.1-13,0.1c-113.2,0-226.5,0-339.7,0c-18.2,0-25.7-7.5-25.7-25.9c0-16.2,0.1-32.4,0.2-48.6
		C197.5,112.5,198,112,198.5,110.9z"/>
	<linearGradient id="XMLID_65_" gradientUnits="userSpaceOnUse" x1="328.5543" y1="317.8747" x2="464.6068" y2="317.8747">
		<stop  offset="0" style="stop-color:#FFFFFF"/>
		<stop  offset="0.6847" style="stop-color:#006CB7;stop-opacity:0.2"/>
	</linearGradient>
	<path id="XMLID_55_" class="st2" d="M464.6,318.4c-0.1,37.7-30.3,67.7-68,67.6c-37.9-0.1-68.1-30.1-68-67.6
		c0-38.8,30.3-68.8,68.9-68.5C435,250.1,464.7,280.5,464.6,318.4z M395.9,358.1c22.4,0.3,40.6-17.1,40.9-39.4
		c0.3-22.3-16.9-40.8-38.3-41.1c-23.9-0.3-42,16.8-42.3,39.8C356,339.8,373.6,357.7,395.9,358.1z"/>
	<linearGradient id="XMLID_66_" gradientUnits="userSpaceOnUse" x1="379.4138" y1="317.8341" x2="413.7906" y2="317.8341">
		<stop  offset="0" style="stop-color:#FFFFFF"/>
		<stop  offset="0.6847" style="stop-color:#006CB7;stop-opacity:0.2"/>
	</linearGradient>
	<path id="XMLID_51_" class="st3" d="M413.8,318.1c0,9-8.1,17-17.2,17c-9.2-0.1-17.2-7.9-17.2-16.9c0-9.2,7.7-17.3,16.7-17.5
		C405.6,300.4,413.8,308.5,413.8,318.1z"/>
</g>
<linearGradient id="XMLID_67_" gradientUnits="userSpaceOnUse" x1="0" y1="167.2335" x2="612" y2="167.2335">
	<stop  offset="0" style="stop-color:#FFFFFF"/>
	<stop  offset="0.105" style="stop-color:#ECECEC"/>
	<stop  offset="0.3175" style="stop-color:#BBBBBB"/>
	<stop  offset="0.6189" style="stop-color:#6D6D6D"/>
	<stop  offset="0.9946" style="stop-color:#020202"/>
	<stop  offset="1" style="stop-color:#000000"/>
</linearGradient>
<path id="XMLID_2_" class="st4" d="M0,262.4c0,0,124.7,199.9,329.9-66.3S612,117,612,117V0H0V262.4z"/>
<linearGradient id="XMLID_68_" gradientUnits="userSpaceOnUse" x1="44.9591" y1="174.0978" x2="525.0409" y2="174.0978">
	<stop  offset="0" style="stop-color:#FFFFFF"/>
	<stop  offset="0.5813" style="stop-color:#E99D23"/>
</linearGradient>
<path id="XMLID_6_" class="st5" d="M45,285.1c0,0,184.6,78,261.1-46.5S423,36.1,525,39.1c0,0-184,141.2-250.5,190.5
	C185,296,100.4,321.1,45,285.1z"/>
<linearGradient id="XMLID_69_" gradientUnits="userSpaceOnUse" x1="0" y1="208.3507" x2="612" y2="208.3507">
	<stop  offset="0" style="stop-color:#FFFFFF"/>
	<stop  offset="0.6847" style="stop-color:#21409A"/>
</linearGradient>
<path id="XMLID_3_" class="st6" d="M5.2,320.9c0,0,77,204.2,325.8-107.9C426.8,92.8,539.6-45.4,612,79.3V117c0,0-22.1-71-115.5-36.1
	c-75,28-347.3,359.4-486.7,195.8L0,262.4v55.9L5.2,320.9z"/>
<g id="XMLID_9_">
	<path id="XMLID_10_" d="M33.1,163.2c0-3.7,0.8-7.5,2.4-11.4s3.8-7.5,6.6-10.6c2.8-3.2,6-5.8,9.6-7.8c3.6-2,7.5-3.1,11.5-3.1h47.7
		c-2.2,2.9-4.5,5.7-6.8,8.3c-2.3,2.6-4.8,5-7.4,7.3h-30c-1,0-2.1,0.3-3.2,1c-1.1,0.7-2.2,1.5-3.2,2.6c-1,1.1-2,2.3-2.8,3.6
		c-0.8,1.3-1.5,2.7-2,4c-0.6,2-0.9,3.6-0.9,4.7c0,1.5,0.4,3,1.2,4.7c0.8,1.7,1.8,3.2,2.9,4.6c1.2,1.4,2.5,2.5,3.9,3.5
		c1.4,0.9,2.8,1.4,4.1,1.4h27.6c-1.8,2.6-3.8,5.3-6,8c-2.2,2.7-4.8,5.3-7.7,7.6h-9.2c-4.8,0-9.4-0.4-14-1.3
		c-4.5-0.8-8.6-2.3-12.2-4.4c-3.6-2.1-6.5-5-8.7-8.6c-2.2-3.6-3.3-8.2-3.3-13.7V163.2z"/>
	<path id="XMLID_12_" d="M179,168.7h-3.7c-0.2,1-0.4,2-0.7,3.1c-0.3,1-0.7,2-1,2.8l-0.6,1.7c-1.2,2.7-2.3,5-3.4,6.9
		c-1.1,1.9-2.6,3.5-4.3,4.7c-1.8,1.2-4.1,2.1-6.9,2.7c-2.8,0.6-6.5,0.9-11,0.9h-32.8c-3.2,0-5.8-0.1-7.9-0.4c-2.1-0.3-3.8-0.7-5-1.3
		s-2.2-1.3-2.7-2.2c-0.5-0.9-0.8-1.9-0.8-3.2c0-1.1,0.2-2.3,0.5-3.6c0.3-1.3,0.7-2.8,1.3-4.4l0.6-1.7c0.4-1,0.9-2.2,1.6-3.5
		c0.7-1.3,1.4-2.5,2.1-3.5c1.2-1.5,2.5-2.7,3.9-3.6c1.3-0.8,2.4-1.6,3.2-2.2c-0.8-0.5-1.4-1.3-1.8-2.4c-0.3-1.1-0.5-2.4-0.5-3.8
		c0-1.8,0.2-3.5,0.6-5.3c0.4-1.7,0.9-3.2,1.6-4.3l0.7-1.8c0.5-1.5,1.3-3.1,2.2-4.8c0.9-1.7,2.3-3.2,4-4.5c1.8-1.3,4.2-2.5,7.2-3.3
		c3-0.9,6.8-1.3,11.5-1.3h42.3c-1.8,2.7-3.8,5.4-5.9,8c-2.1,2.6-4.4,5.2-7,7.7h-27.9c-0.4,0-1.1,0.2-2.1,0.6c-1,0.4-1.7,1.1-2.1,1.9
		l-6.5,18l15.5-13.4h52.4L179,168.7z M145.9,175.8c0.8-0.4,1.4-0.7,1.8-1c0.5-0.3,0.9-0.5,1.4-0.8c0.5-0.3,0.8-0.5,1-0.8
		c0.2-0.3,0.4-0.5,0.5-0.6l0.2-0.6c0.2-0.2,0.4-0.8,0.7-1.8c0.3-1,0.5-1.7,0.5-2.3H127l-1.7,5.2c0.2,0.4,0.6,0.9,1.2,1.6
		c0.5,0.7,0.9,1,1,1H145.9z"/>
	<path id="XMLID_15_" d="M275,130.3c-0.5,1.1-1.4,2.5-2.7,4.2c-1.3,1.7-2.6,3.4-4,5.1c-1.4,1.7-2.8,3.2-4.2,4.4
		c-1.3,1.2-2.3,1.8-2.9,1.8h-35.6L219,164l11-10.6h26.7L240.1,169h-23l-8.2,22.5h-22l22.3-61.2H275z"/>
</g>
<g id="XMLID_1_">
	<path id="XMLID_17_" d="M44.2,212.2V212c0-0.1,0-0.2-0.1-0.3s-0.1-0.2-0.2-0.2h-3.7c-0.4,0-0.7-0.1-1-0.3c-0.3-0.2-0.5-0.4-0.8-0.7
		c-0.2-0.3-0.4-0.6-0.5-0.9c-0.1-0.3-0.2-0.7-0.2-1c0-0.3,0.1-0.6,0.3-1c0.2-0.4,0.4-0.7,0.7-1.1s0.6-0.6,0.9-0.8
		c0.3-0.2,0.7-0.3,1-0.3h9.4c-0.3,0.4-0.6,0.8-1,1.3s-0.8,0.8-1.2,1.2h-6.1c-0.1,0-0.3,0.1-0.3,0.3c-0.1,0.2-0.1,0.3-0.1,0.4v0.1
		c0,0,0,0,0.1,0.1s0.1,0.1,0.1,0.1c0,0,0.1,0.1,0.2,0.1c0.1,0,0.1,0.1,0.2,0.1h3.5c0.4,0,0.7,0.1,1,0.3c0.3,0.2,0.5,0.4,0.7,0.7
		s0.3,0.6,0.4,0.9c0.1,0.3,0.1,0.6,0.1,0.9v0.1c0,0.3-0.1,0.7-0.2,1c-0.1,0.4-0.3,0.7-0.6,1c-0.2,0.3-0.5,0.6-0.8,0.8
		s-0.6,0.3-1,0.3h-9.4c0.1-0.1,0.2-0.3,0.4-0.6c0.2-0.3,0.4-0.5,0.6-0.8c0.2-0.3,0.4-0.5,0.6-0.7c0.2-0.2,0.3-0.3,0.3-0.3h6.2
		c0.2,0,0.3-0.1,0.3-0.2c0-0.1,0-0.2,0-0.3V212.2z"/>
	<path id="XMLID_19_" d="M49.7,209.6l1.5-4.1h3.5c-0.4,1.3-0.8,2.2-1,2.9c-0.2,0.7-0.4,1.2-0.5,1.6c-0.1,0.3-0.2,0.6-0.2,0.7
		c0,0.1,0,0.2,0,0.2c-0.1,0.2-0.1,0.4-0.1,0.6c0,0.4,0.1,0.8,0.4,1c0.2,0.2,0.5,0.4,0.8,0.4h0.9c0.3,0,0.6-0.1,0.8-0.2
		c0.3-0.1,0.5-0.3,0.7-0.5c0.2-0.2,0.4-0.4,0.5-0.6c0.1-0.2,0.3-0.4,0.3-0.6l2-5.5h3.5L61,210c-0.3,0.8-0.6,1.6-0.9,2.2
		c-0.3,0.6-0.7,1.2-1.1,1.6c-0.4,0.4-0.9,0.8-1.4,1c-0.5,0.2-1.2,0.3-1.9,0.3h-2.2c-0.9,0-1.6-0.1-2.2-0.2c-0.6-0.1-1-0.3-1.4-0.5
		c-0.3-0.2-0.6-0.5-0.7-0.9s-0.2-0.8-0.2-1.3c0-0.1,0-0.3,0-0.4c0-0.1,0-0.3,0.1-0.5c0.1-0.3,0.1-0.6,0.3-0.9
		C49.5,210.4,49.6,210,49.7,209.6z"/>
	<path id="XMLID_21_" d="M63.7,205.5h8.2c0.4,0,0.8,0.1,1.1,0.3c0.3,0.2,0.5,0.4,0.6,0.7c0.1,0.3,0.2,0.6,0.3,0.9
		c0,0.3,0.1,0.6,0.1,0.9c0,0.6-0.2,1.1-0.5,1.5c-0.3,0.4-0.7,0.7-1.1,1c-0.5,0.2-1,0.4-1.5,0.5s-1.1,0.2-1.6,0.2l3.6,3.7h-3.9
		l-3.8-3.5l-0.2,0.1l-1.2,3.3h-3.5L63.7,205.5z M70.4,208.3c0-0.1,0-0.2-0.1-0.2c0-0.1-0.1-0.1-0.3-0.1h-3.7l-1,2.9l1.6-1.6h2.9
		c0.2,0,0.3-0.1,0.4-0.2c0.1-0.2,0.1-0.3,0.1-0.4V208.3z"/>
	<path id="XMLID_24_" d="M84,205.5h3.8l-6.5,8.6c-0.1,0.1-0.1,0.2-0.3,0.3c-0.1,0.1-0.2,0.2-0.4,0.4c-0.1,0.1-0.3,0.2-0.4,0.3
		c-0.1,0.1-0.2,0.1-0.3,0.1h-3c-0.1,0-0.3-0.1-0.3-0.2c-0.1-0.1-0.2-0.3-0.3-0.5c-0.1-0.2-0.1-0.4-0.2-0.6c0-0.2-0.1-0.4-0.1-0.5
		l-1.1-7.9H78l0.9,6.6L84,205.5z"/>
	<path id="XMLID_26_" d="M99.1,205.5c-0.1,0.2-0.2,0.4-0.4,0.7c-0.2,0.3-0.4,0.5-0.6,0.8c-0.2,0.3-0.4,0.5-0.7,0.7
		c-0.2,0.2-0.4,0.3-0.5,0.3h-5.7l-1,2.9l1.7-1.7h4.2l-2.6,2.5h-3.7l-0.4,1.1h7c0,0,0,0.1-0.1,0.2c0,0.1-0.1,0.2-0.1,0.2
		c0,0.1-0.1,0.2-0.1,0.2c0,0.1-0.1,0.1-0.1,0.1c-0.1,0.1-0.3,0.3-0.5,0.5c-0.2,0.2-0.4,0.4-0.6,0.6c-0.2,0.2-0.3,0.3-0.5,0.5
		c-0.1,0.1-0.2,0.2-0.2,0.2h-9.2l3.5-9.7H99.1z"/>
	<path id="XMLID_28_" d="M100.2,205.5h3.5l-3.5,9.7h-3.5L100.2,205.5z"/>
	<path id="XMLID_30_" d="M101.2,215.2l3.5-9.7h3.5l-2.6,7.3h5.8c0,0-0.1,0.1-0.2,0.3c-0.2,0.2-0.3,0.5-0.6,0.7
		c-0.2,0.3-0.5,0.6-0.7,0.8s-0.5,0.5-0.6,0.6H101.2z"/>
	<path id="XMLID_32_" d="M120.9,215.2l-0.4-2.1c0,0.1-0.1,0.2-0.3,0.4c-0.2,0.2-0.3,0.4-0.5,0.7c-0.2,0.2-0.4,0.4-0.6,0.6
		c-0.2,0.2-0.3,0.3-0.4,0.3H111c0-0.1,0-0.1,0-0.1v-0.1l6.6-8.5c0-0.1,0.1-0.2,0.2-0.3c0.1-0.1,0.2-0.2,0.4-0.4
		c0.1-0.1,0.3-0.2,0.4-0.3c0.1-0.1,0.2-0.1,0.3-0.1h3.1c0.1,0,0.2,0.1,0.3,0.2c0.1,0.1,0.2,0.3,0.3,0.5c0.1,0.2,0.1,0.4,0.2,0.6
		c0.1,0.2,0.1,0.4,0.1,0.5l1.2,7.9H120.9z M116.8,212.8h3.7l-0.6-4.3l-3.1,4.1V212.8z"/>
	<path id="XMLID_35_" d="M128.6,205.5h4.4l1,5.5l2-5.5h3.5l-3.5,9.7h-4.4l-1-5.5l-2,5.5H125L128.6,205.5z"/>
	<path id="XMLID_37_" d="M138.9,210.7c0-0.6,0.1-1.2,0.4-1.8c0.3-0.6,0.6-1.2,1-1.7c0.4-0.5,0.9-0.9,1.5-1.2
		c0.6-0.3,1.2-0.5,1.8-0.5h7.6c-0.4,0.5-0.7,0.9-1.1,1.3c-0.4,0.4-0.8,0.8-1.2,1.2h-4.8c-0.2,0-0.3,0.1-0.5,0.2
		c-0.2,0.1-0.3,0.2-0.5,0.4s-0.3,0.4-0.5,0.6c-0.1,0.2-0.2,0.4-0.3,0.6c-0.1,0.3-0.1,0.6-0.1,0.8c0,0.2,0.1,0.5,0.2,0.7
		c0.1,0.3,0.3,0.5,0.5,0.7c0.2,0.2,0.4,0.4,0.6,0.6c0.2,0.1,0.4,0.2,0.7,0.2h4.4c-0.3,0.4-0.6,0.8-1,1.3c-0.4,0.4-0.8,0.8-1.2,1.2
		H145c-0.8,0-1.5-0.1-2.2-0.2c-0.7-0.1-1.4-0.4-1.9-0.7c-0.6-0.3-1-0.8-1.4-1.4C139,212.4,138.9,211.7,138.9,210.7L138.9,210.7z"/>
	<path id="XMLID_39_" d="M162.7,205.5c-0.1,0.2-0.2,0.4-0.4,0.7c-0.2,0.3-0.4,0.5-0.6,0.8c-0.2,0.3-0.4,0.5-0.7,0.7
		c-0.2,0.2-0.4,0.3-0.5,0.3h-5.7l-1,2.9l1.7-1.7h4.2l-2.6,2.5h-3.7l-0.4,1.1h7c0,0,0,0.1-0.1,0.2c0,0.1-0.1,0.2-0.1,0.2
		c0,0.1-0.1,0.2-0.1,0.2c0,0.1-0.1,0.1-0.1,0.1c-0.1,0.1-0.3,0.3-0.5,0.5c-0.2,0.2-0.4,0.4-0.6,0.6c-0.2,0.2-0.3,0.3-0.5,0.5
		c-0.1,0.1-0.2,0.2-0.2,0.2h-9.2l3.5-9.7H162.7z"/>
	<path id="XMLID_41_" d="M174,212.2V212c0-0.1,0-0.2-0.1-0.3s-0.1-0.2-0.2-0.2h-3.7c-0.4,0-0.7-0.1-1-0.3c-0.3-0.2-0.5-0.4-0.8-0.7
		c-0.2-0.3-0.4-0.6-0.5-0.9c-0.1-0.3-0.2-0.7-0.2-1c0-0.3,0.1-0.6,0.3-1c0.2-0.4,0.4-0.7,0.7-1.1s0.6-0.6,0.9-0.8
		c0.3-0.2,0.7-0.3,1-0.3h9.4c-0.3,0.4-0.6,0.8-1,1.3s-0.8,0.8-1.2,1.2h-6.1c-0.1,0-0.3,0.1-0.3,0.3c-0.1,0.2-0.1,0.3-0.1,0.4v0.1
		c0,0,0,0,0.1,0.1s0.1,0.1,0.1,0.1c0,0,0.1,0.1,0.2,0.1c0.1,0,0.1,0.1,0.2,0.1h3.5c0.4,0,0.7,0.1,1,0.3s0.5,0.4,0.7,0.7
		c0.2,0.3,0.3,0.6,0.4,0.9c0.1,0.3,0.1,0.6,0.1,0.9v0.1c0,0.3-0.1,0.7-0.2,1c-0.1,0.4-0.3,0.7-0.6,1c-0.2,0.3-0.5,0.6-0.8,0.8
		s-0.6,0.3-1,0.3h-9.4c0.1-0.1,0.2-0.3,0.4-0.6c0.2-0.3,0.4-0.5,0.6-0.8c0.2-0.3,0.4-0.5,0.6-0.7c0.2-0.2,0.3-0.3,0.3-0.3h6.2
		c0.2,0,0.3-0.1,0.3-0.2c0-0.1,0-0.2,0-0.3V212.2z"/>
	<path id="XMLID_43_" d="M182.8,210.6l-2.1-5.1h3.9l0.9,2.3l2.6-2.3h3.9l-5.8,5.1l-1.7,4.6h-3.5L182.8,210.6z"/>
	<path id="XMLID_45_" d="M198.2,212.2V212c0-0.1,0-0.2-0.1-0.3s-0.1-0.2-0.2-0.2h-3.7c-0.4,0-0.7-0.1-1-0.3
		c-0.3-0.2-0.5-0.4-0.8-0.7c-0.2-0.3-0.4-0.6-0.5-0.9c-0.1-0.3-0.2-0.7-0.2-1c0-0.3,0.1-0.6,0.3-1c0.2-0.4,0.4-0.7,0.7-1.1
		s0.6-0.6,0.9-0.8c0.3-0.2,0.7-0.3,1-0.3h9.4c-0.3,0.4-0.6,0.8-1,1.3s-0.8,0.8-1.2,1.2h-6.1c-0.1,0-0.3,0.1-0.3,0.3
		c-0.1,0.2-0.1,0.3-0.1,0.4v0.1c0,0,0,0,0.1,0.1s0.1,0.1,0.1,0.1c0,0,0.1,0.1,0.2,0.1c0.1,0,0.1,0.1,0.2,0.1h3.5
		c0.4,0,0.7,0.1,1,0.3s0.5,0.4,0.7,0.7c0.2,0.3,0.3,0.6,0.4,0.9c0.1,0.3,0.1,0.6,0.1,0.9v0.1c0,0.3-0.1,0.7-0.2,1
		c-0.1,0.4-0.3,0.7-0.6,1c-0.2,0.3-0.5,0.6-0.8,0.8s-0.6,0.3-1,0.3h-9.4c0.1-0.1,0.2-0.3,0.4-0.6c0.2-0.3,0.4-0.5,0.6-0.8
		c0.2-0.3,0.4-0.5,0.6-0.7c0.2-0.2,0.3-0.3,0.3-0.3h6.2c0.2,0,0.3-0.1,0.3-0.2c0-0.1,0-0.2,0-0.3V212.2z"/>
	<path id="XMLID_47_" d="M207.2,208h-3.5v0c0,0,0.1-0.2,0.3-0.4c0.2-0.2,0.4-0.5,0.6-0.7c0.2-0.3,0.5-0.5,0.7-0.8
		c0.2-0.3,0.4-0.4,0.6-0.5h9.2c-0.1,0.2-0.2,0.4-0.4,0.7c-0.2,0.3-0.4,0.5-0.6,0.8c-0.2,0.3-0.4,0.5-0.7,0.7
		c-0.2,0.2-0.4,0.3-0.5,0.3h-2.2l-2.6,7.3h-3.5L207.2,208z"/>
	<path id="XMLID_49_" d="M226.5,205.5c-0.1,0.2-0.2,0.4-0.4,0.7c-0.2,0.3-0.4,0.5-0.6,0.8c-0.2,0.3-0.4,0.5-0.7,0.7
		c-0.2,0.2-0.4,0.3-0.5,0.3h-5.7l-1,2.9l1.7-1.7h4.2l-2.6,2.5h-3.7l-0.4,1.1h7c0,0,0,0.1-0.1,0.2c0,0.1-0.1,0.2-0.1,0.2
		c0,0.1-0.1,0.2-0.1,0.2c0,0.1-0.1,0.1-0.1,0.1c-0.1,0.1-0.3,0.3-0.5,0.5c-0.2,0.2-0.4,0.4-0.6,0.6c-0.2,0.2-0.3,0.3-0.5,0.5
		c-0.1,0.1-0.2,0.2-0.2,0.2h-9.2l3.5-9.7H226.5z"/>
	<path id="XMLID_52_" d="M234.7,215.2l2-5.5l-5,5.5h-1.3l-1-5.5l-2,5.5h-3.5l3.5-9.7h4.4l0.9,4.9l4.5-4.9h4.4l-3.5,9.7H234.7z"/>
	<path id="XMLID_54_" d="M248,212.2V212c0-0.1,0-0.2-0.1-0.3s-0.1-0.2-0.2-0.2h-3.7c-0.4,0-0.7-0.1-1-0.3c-0.3-0.2-0.5-0.4-0.8-0.7
		c-0.2-0.3-0.4-0.6-0.5-0.9c-0.1-0.3-0.2-0.7-0.2-1c0-0.3,0.1-0.6,0.3-1c0.2-0.4,0.4-0.7,0.7-1.1s0.6-0.6,0.9-0.8
		c0.3-0.2,0.7-0.3,1-0.3h9.4c-0.3,0.4-0.6,0.8-1,1.3s-0.8,0.8-1.2,1.2h-6.1c-0.1,0-0.3,0.1-0.3,0.3c-0.1,0.2-0.1,0.3-0.1,0.4v0.1
		c0,0,0,0,0.1,0.1s0.1,0.1,0.1,0.1c0,0,0.1,0.1,0.2,0.1c0.1,0,0.1,0.1,0.2,0.1h3.5c0.4,0,0.7,0.1,1,0.3c0.3,0.2,0.5,0.4,0.7,0.7
		s0.3,0.6,0.4,0.9c0.1,0.3,0.1,0.6,0.1,0.9v0.1c0,0.3-0.1,0.7-0.2,1c-0.1,0.4-0.3,0.7-0.6,1c-0.2,0.3-0.5,0.6-0.8,0.8
		s-0.6,0.3-1,0.3h-9.4c0.1-0.1,0.2-0.3,0.4-0.6c0.2-0.3,0.4-0.5,0.6-0.8c0.2-0.3,0.4-0.5,0.6-0.7s0.3-0.3,0.3-0.3h6.2
		c0.2,0,0.3-0.1,0.3-0.2c0-0.1,0-0.2,0-0.3V212.2z"/>
</g>
<g id="XMLID_7_">
	<path id="XMLID_150_" d="M48.3,71.7c0.1,0.3,0.2,0.4,0.2,0.5c2.2,2.9,2.2,2.9,5.7,1.7c14.6-5,29.1-9.9,43.7-14.9
		c0.5-0.2,1-0.3,1.7-0.5c0.7,3.9,1.5,7.7,2.2,11.5c0.2,1.3,0.4,2.6,0.7,3.9c0.3,1.2-0.1,1.7-1.2,2.1c-5.3,2.1-10.5,4.2-15.8,6.3
		c-7.8,3.2-15.6,6.4-23.4,9.6c-3.8,1.5-3.7,1.5-5.6-2.1c-3.3-6.3-6.5-12.7-11-18.3c-1-1.3-2.2-1.9-4-1.9c-4.1,0.1-8.2,0-12.3-0.1
		c2.8-0.9,5.6-1.7,8.5-2.6c13.5-4.1,27.1-8.2,40.6-12.2c0.7-0.2,1.5-0.4,2.3-0.4c5,0,10.1,0,15.1,0c1.1,0,2.2,0.1,3,1.4
		C82,61.1,65.2,66.4,48.3,71.7z"/>
	<path id="XMLID_149_" d="M109.7,105.9c0,3.7,0,7.2,0,10.8c-8,0-16,0-24.1,0c0-3.4,0-6.7,0-10c0-1.1,0.8-0.8,1.4-0.8
		c6.4,0,12.8,0,19.2,0C107.2,105.9,108.4,105.9,109.7,105.9z"/>
	<path id="XMLID_148_" d="M69.5,101c0-2.8,0-5.4,0-8.3c-2.4,1-4.7,1.8-6.9,2.9c-4.7,2.5-9.6,3.6-14.9,3.2c-2.5-0.2-5,0-7.5,0
		c-1.6,0-2.4-0.8-2.8-2.3c1.7,2.3,4,1.2,6,1.3c3.3,0.1,6.6,0,9.8,0c2.1,0,2.7-0.8,2.2-2.8c-0.9-3.6-1.9-7.1-2.7-10.8
		c1.5,2.7,2.9,5.5,4.4,8.2c0.9,1.6,1.1,1.8,2.9,1.1c8-3.2,15.9-6.4,23.9-9.6c4.2-1.7,8.4-3.4,12.9-5.2c-0.9,1.6-1.3,3-3.1,3.7
		c-7.2,2.9-14.3,6-21.6,9.2c1.8,1.1,3.5,2.1,5.2,3.2c0.4,0.2,0.8,0.6,1.1,0.9c0.9,1.7,1.8,3.5,2.7,5.3C77.3,101,73.5,101,69.5,101z"
		/>
	<path id="XMLID_147_" d="M45.3,72.7c-4.3,0-8.6,0-12.8,0c-2.7,0-3.4,0.9-2.4,3.5c1.8,4.9,3.6,9.8,5.4,14.7c0.2,0.4,0.3,0.9,0.5,1.3
		c-2.7,1.5-3.2,1.4-5-1c-2.9-4-4.4-8.7-5.7-13.4c-0.4-1.3-0.6-2.7-0.8-4c-0.3-2,0.3-2.8,2.3-2.9c2.8-0.2,5.7-0.2,8.5-0.3
		c1.9-0.1,3.8,0,5.7-0.2C42.8,70.2,44.3,70.6,45.3,72.7z"/>
	<path id="XMLID_146_" d="M84.7,116.7c-0.4,0-0.8,0.1-1.1,0.1c-2.1,0-4.3,0-6.6,0c0-3.2,0-6.4,0-9.6c-0.9,0-1.7,0-2.6,0
		c0,3.1,0,6.3,0,9.5c-1.3,0-2.4,0-3.5,0c0-3.6,0-7.1,0-10.7c4.6,0,9.2,0,13.8,0C84.7,109.6,84.7,113,84.7,116.7z"/>
	<path id="XMLID_143_" d="M47.5,77.9c0.7,1,1.3,1.9,2,2.9c2.2,3.4,3.4,7,2.4,11.1c-0.9,3.7-4,5.5-7.6,4.3c-5.5-1.9-8.5-6.1-9.7-11.6
		c-0.4-1.9-0.3-4,0.2-5.9c0.9-3.4,3.9-4.8,7.3-3.8c1.5,0.5,2.8,1.4,4.1,2.1C46.7,77.3,47.1,77.6,47.5,77.9
		C47.5,77.8,47.5,77.9,47.5,77.9z M40.1,76.8c-0.6,0.2-1.3,0.2-1.9,0.5c-2.3,1.5-3.3,5.6-2.3,8.4c1.1,3.2,2.9,5.9,5.8,7.8
		c1.8,1.1,3.7,1.8,5.8,1c2.2-0.9,3.9-4.7,3.2-7c-0.6-2.1-1.3-4.2-2.7-6.1C45.9,78.7,43.6,76.9,40.1,76.8z"/>
	<path id="XMLID_142_" d="M86.6,86.2c-0.2,1.5-0.3,2.8-0.5,4.1c-0.1,0.3-0.5,0.7-0.9,0.8c-2.9,0.7-4.1,2.1-4.2,4.6
		c0,2.4,1.4,4,4.2,4.6c-0.6,1.3-1.6,1.2-2.7,0.7c-1.7-0.7-2.5-2.2-2.9-3.8c-0.4-1.7-1.4-2.8-2.9-3.5c-1.1-0.5-2-1.2-3.3-1.9
		C77.9,89.8,82.1,88.1,86.6,86.2z"/>
	<path id="XMLID_141_" d="M86.4,105.1c-3.5,0-6.9,0-10.5,0c-0.1-0.7-0.1-1.4-0.2-2.3c-0.8,0-1.5,0-2.4,0c0,0.7-0.1,1.5-0.1,2.3
		c-1.5,0-2.9,0-4.5,0c0-1,0-2,0-3c5.9,0,11.7,0,17.6,0C86.4,103.1,86.4,104,86.4,105.1z"/>
	<path id="XMLID_140_" d="M88.3,95.7c0,1.9-1.5,3.6-3.1,3.6c-1.7,0-3.2-1.7-3.2-3.7c0-1.9,1.5-3.6,3.2-3.6
		C86.9,92,88.3,93.7,88.3,95.7z"/>
	<path id="XMLID_137_" d="M73.1,118.1c3.6,0,7.1,0,10.6,0c-0.1,2.4-1.9,4.3-4.5,4.6C76.2,123.1,74.1,121.5,73.1,118.1z M74.4,118.5
		c0.4,1.1,0.7,2.1,1.9,2c1.2-0.1,1.5-0.9,1.6-2C76.8,118.5,75.7,118.5,74.4,118.5z"/>
	<path id="XMLID_136_" d="M34.3,77.4c-0.3,0.2-0.7,0.9-1.3,1c-0.9,0.2-2-1.3-1.8-2.6c0.1-0.6,0.7-1.3,1.2-1.4
		C33.4,74.2,34.4,75.6,34.3,77.4z"/>
	<path id="XMLID_135_" d="M51.2,94.9c0.7-0.7,1.1-1.3,1.5-1.4c0.7-0.2,1.8,1,1.6,2c-0.1,0.5-0.7,0.9-1,1.3
		C52.7,96.3,52.1,95.7,51.2,94.9z"/>
	<path id="XMLID_134_" d="M41,95.8c-0.8,0.7-1.2,1-1.6,1.4c-0.5-0.7-1.2-1.3-1.5-2.1c-0.1-0.2,0.7-0.9,1.1-1.3
		C39.6,94.4,40.2,95,41,95.8z"/>
	<path id="XMLID_133_" d="M47.5,77.9C47.5,77.9,47.5,77.8,47.5,77.9c-0.6-0.9-1.3-1.8-0.6-3.2c0.9,1.3,1.6,2.4,2.4,3.5
		c-0.1,0.1-0.2,0.3-0.3,0.4C48.6,78.3,48.1,78.1,47.5,77.9z"/>
	<path id="XMLID_126_" class="st7" d="M74.4,118.5c1.3,0,2.4,0,3.5,0c-0.1,1.1-0.5,1.9-1.6,2C75.1,120.6,74.8,119.7,74.4,118.5z"/>
	<path id="XMLID_123_" d="M44.6,93.6c-1.3,0-2.8-1.1-4.2-2.3c-2.2-1.9-3-4.5-3.4-7.3c-0.4-2.4,1.3-5.2,3.7-5.6
		c1.7-0.3,3.1,0.7,4.4,1.6c2.2,1.6,3.5,4.1,4.1,6.6c0.4,1.5,0.4,3.3-0.5,4.9C47.9,92.9,46.9,93.5,44.6,93.6z M38,84
		c0.1,3.3,2.5,6.9,5.2,7.9c2.4,0.9,4.3-0.1,4.9-2.6c0.7-3.1-1.2-7.1-4-8.7c-1.4-0.8-2.8-1.2-4.3-0.3C38.3,81.2,38.1,82.7,38,84z"/>
	<path id="XMLID_119_" d="M46.5,85.7c-0.3,0.3-0.7,1.1-1.4,1.3c-1,0.3-2.2-1.4-2.1-2.8c0-0.9,0.4-1.7,1.4-1.7
		C45.4,82.3,46.5,83.9,46.5,85.7z"/>
</g>
</svg>
