<?xml version="1.0" encoding="utf-8"?>
<!-- Generator: Adobe Illustrator 19.0.0, SVG Export Plug-In . SVG Version: 6.00 Build 0)  -->
<svg version="1.1" id="Layer_1" xmlns="http://www.w3.org/2000/svg" xmlns:xlink="http://www.w3.org/1999/xlink" x="0px" y="0px"
	 viewBox="0 0 612 792" style="enable-background:new 0 0 612 792;" xml:space="preserve">
<style type="text/css">
	.st0{fill:url(#XMLID_40_);}
	.st1{fill:url(#XMLID_42_);}
	.st2{fill:url(#XMLID_44_);}
	.st3{fill:url(#XMLID_46_);}
	.st4{fill:url(#XMLID_48_);stroke:#FFFFFF;stroke-miterlimit:10;}
	.st5{fill:url(#XMLID_50_);stroke:#FFFFFF;stroke-miterlimit:10;}
	.st6{fill:#FFFFFF;}
	.st7{fill:#FF0000;}
	.st8{font-family:'Airstrike';}
	.st9{font-size:15.4446px;}
	.st10{fill:#D61820;}
	.st11{fill:#6C6E71;}
	.st12{fill:#6F7174;}
	.st13{fill:#FBFBFB;}
	.st14{fill:#707275;}
	.st15{fill:#DCDCDD;}
	.st16{fill:#EC1C24;}
</style>
<rect x="69.8" y="529.3" width="255.8" height="159.5"/>
<g id="XMLID_8_">
	
		<linearGradient id="XMLID_40_" gradientUnits="userSpaceOnUse" x1="232.4" y1="497.7895" x2="560.2" y2="497.7895" gradientTransform="matrix(1 0 0 -1 0 792)">
		<stop  offset="0" style="stop-color:#FFFFFF"/>
		<stop  offset="0.6847" style="stop-color:#006CB7;stop-opacity:0.2"/>
	</linearGradient>
	<path id="XMLID_62_" class="st0" d="M560.2,177.7c-2.3,39,4.1,77.6-6.9,115.5c-21.6,74.6-90.1,121.9-170.1,117.2
		C310.2,406,246.1,348,236,273.8c-4.3-31.3-2.6-63.4-3.6-96C342.2,177.7,450.5,177.7,560.2,177.7z M396.1,373.7
		c44,0.1,80.3-35.3,80.5-78.7c0.2-45-35.1-81-79.8-81.1c-43.7-0.2-79.9,35.6-80.1,79.1C316.5,337.5,352,373.6,396.1,373.7z"/>
	
		<linearGradient id="XMLID_42_" gradientUnits="userSpaceOnUse" x1="197.3" y1="665.7375" x2="595.4382" y2="665.7375" gradientTransform="matrix(1 0 0 -1 0 792)">
		<stop  offset="0" style="stop-color:#FFFFFF"/>
		<stop  offset="0.6847" style="stop-color:#006CB7;stop-opacity:0.2"/>
	</linearGradient>
	<path id="XMLID_61_" class="st1" d="M198.5,87.9c131.9,0,264.1,0,396.7,0c0,20.2,0.7,40.1-0.3,60c-0.5,9.9-9.1,16.1-19.2,16.6
		c-4.3,0.2-8.7,0.1-13,0.1c-113.2,0-226.5,0-339.7,0c-18.2,0-25.7-7.5-25.7-25.9c0-16.2,0.1-32.4,0.2-48.6
		C197.5,89.5,198,89,198.5,87.9z"/>
	
		<linearGradient id="XMLID_44_" gradientUnits="userSpaceOnUse" x1="328.5998" y1="494.051" x2="464.6003" y2="494.051" gradientTransform="matrix(1 0 0 -1 0 792)">
		<stop  offset="0" style="stop-color:#FFFFFF"/>
		<stop  offset="0.6847" style="stop-color:#006CB7;stop-opacity:0.2"/>
	</linearGradient>
	<path id="XMLID_55_" class="st2" d="M464.6,298.4c-0.1,37.7-30.3,67.7-68,67.6c-37.9-0.1-68.1-30.1-68-67.6
		c0-38.8,30.3-68.8,68.9-68.5C435,230.1,464.7,260.5,464.6,298.4z M395.9,338.1c22.4,0.3,40.6-17.1,40.9-39.4s-16.9-40.8-38.3-41.1
		c-23.9-0.3-42,16.8-42.3,39.8C356,319.8,373.6,337.7,395.9,338.1z"/>
	
		<linearGradient id="XMLID_46_" gradientUnits="userSpaceOnUse" x1="379.4" y1="494.104" x2="413.8" y2="494.104" gradientTransform="matrix(1 0 0 -1 0 792)">
		<stop  offset="0" style="stop-color:#FFFFFF"/>
		<stop  offset="0.6847" style="stop-color:#006CB7;stop-opacity:0.2"/>
	</linearGradient>
	<path id="XMLID_51_" class="st3" d="M413.8,298.1c0,9-8.1,17-17.2,17c-9.2-0.1-17.2-7.9-17.2-16.9c0-9.2,7.7-17.3,16.7-17.5
		C405.6,280.4,413.8,288.5,413.8,298.1z"/>
</g>
<linearGradient id="XMLID_48_" gradientUnits="userSpaceOnUse" x1="0" y1="624.782" x2="612" y2="624.782" gradientTransform="matrix(1 0 0 -1 0 792)">
	<stop  offset="0" style="stop-color:#FFFFFF"/>
	<stop  offset="0.105" style="stop-color:#ECECEC"/>
	<stop  offset="0.3175" style="stop-color:#BBBBBB"/>
	<stop  offset="0.6189" style="stop-color:#6D6D6D"/>
	<stop  offset="0.9946" style="stop-color:#020202"/>
	<stop  offset="1" style="stop-color:#000000"/>
</linearGradient>
<path id="XMLID_2_" class="st4" d="M0,262.4c0,0,124.7,199.9,329.9-66.3S612,117,612,117V0H0V262.4z"/>
<linearGradient id="XMLID_50_" gradientUnits="userSpaceOnUse" x1="0" y1="579.4259" x2="612" y2="579.4259" gradientTransform="matrix(1 0 0 -1 0 792)">
	<stop  offset="0" style="stop-color:#FFFFFF"/>
	<stop  offset="0.6847" style="stop-color:#282974"/>
</linearGradient>
<path id="XMLID_3_" class="st5" d="M3.2,326.9c0,0,78.7,169.3,332.8-138.5C428,77,505,8.7,612,82.7v37.7c0,0-22.1-71-115.5-36.1
	C390,133.7,149.7,439.8,10.3,276.1L0,262.4v59.3L3.2,326.9z"/>
<g id="XMLID_9_">
	<path id="XMLID_10_" d="M33.1,163.2c0-3.7,0.8-7.5,2.4-11.4s3.8-7.5,6.6-10.6c2.8-3.2,6-5.8,9.6-7.8s7.5-3.1,11.5-3.1h47.7
		c-2.2,2.9-4.5,5.7-6.8,8.3s-4.8,5-7.4,7.3h-30c-1,0-2.1,0.3-3.2,1c-1.1,0.7-2.2,1.5-3.2,2.6s-2,2.3-2.8,3.6s-1.5,2.7-2,4
		c-0.6,2-0.9,3.6-0.9,4.7c0,1.5,0.4,3,1.2,4.7s1.8,3.2,2.9,4.6c1.2,1.4,2.5,2.5,3.9,3.5c1.4,0.9,2.8,1.4,4.1,1.4h27.6
		c-1.8,2.6-3.8,5.3-6,8s-4.8,5.3-7.7,7.6h-9.2c-4.8,0-9.4-0.4-14-1.3c-4.5-0.8-8.6-2.3-12.2-4.4c-3.6-2.1-6.5-5-8.7-8.6
		s-3.3-8.2-3.3-13.7L33.1,163.2L33.1,163.2z"/>
	<path id="XMLID_12_" d="M179,168.7h-3.7c-0.2,1-0.4,2-0.7,3.1c-0.3,1-0.7,2-1,2.8l-0.6,1.7c-1.2,2.7-2.3,5-3.4,6.9
		c-1.1,1.9-2.6,3.5-4.3,4.7c-1.8,1.2-4.1,2.1-6.9,2.7c-2.8,0.6-6.5,0.9-11,0.9h-32.8c-3.2,0-5.8-0.1-7.9-0.4c-2.1-0.3-3.8-0.7-5-1.3
		s-2.2-1.3-2.7-2.2s-0.8-1.9-0.8-3.2c0-1.1,0.2-2.3,0.5-3.6s0.7-2.8,1.3-4.4l0.6-1.7c0.4-1,0.9-2.2,1.6-3.5s1.4-2.5,2.1-3.5
		c1.2-1.5,2.5-2.7,3.9-3.6c1.3-0.8,2.4-1.6,3.2-2.2c-0.8-0.5-1.4-1.3-1.8-2.4c-0.3-1.1-0.5-2.4-0.5-3.8c0-1.8,0.2-3.5,0.6-5.3
		c0.4-1.7,0.9-3.2,1.6-4.3l0.7-1.8c0.5-1.5,1.3-3.1,2.2-4.8c0.9-1.7,2.3-3.2,4-4.5c1.8-1.3,4.2-2.5,7.2-3.3c3-0.9,6.8-1.3,11.5-1.3
		h42.3c-1.8,2.7-3.8,5.4-5.9,8c-2.1,2.6-4.4,5.2-7,7.7h-27.9c-0.4,0-1.1,0.2-2.1,0.6c-1,0.4-1.7,1.1-2.1,1.9l-6.5,18l15.5-13.4h52.4
		L179,168.7z M145.9,175.8c0.8-0.4,1.4-0.7,1.8-1c0.5-0.3,0.9-0.5,1.4-0.8s0.8-0.5,1-0.8s0.4-0.5,0.5-0.6l0.2-0.6
		c0.2-0.2,0.4-0.8,0.7-1.8s0.5-1.7,0.5-2.3h-25l-1.7,5.2c0.2,0.4,0.6,0.9,1.2,1.6c0.5,0.7,0.9,1,1,1h18.4V175.8z"/>
	<path id="XMLID_15_" d="M275,130.3c-0.5,1.1-1.4,2.5-2.7,4.2c-1.3,1.7-2.6,3.4-4,5.1c-1.4,1.7-2.8,3.2-4.2,4.4
		c-1.3,1.2-2.3,1.8-2.9,1.8h-35.6L219,164l11-10.6h26.7L240.1,169h-23l-8.2,22.5h-22l22.3-61.2H275z"/>
</g>
<g id="XMLID_1_">
	<path id="XMLID_17_" d="M44.2,212.2V212c0-0.1,0-0.2-0.1-0.3s-0.1-0.2-0.2-0.2h-3.7c-0.4,0-0.7-0.1-1-0.3s-0.5-0.4-0.8-0.7
		c-0.2-0.3-0.4-0.6-0.5-0.9c-0.1-0.3-0.2-0.7-0.2-1s0.1-0.6,0.3-1s0.4-0.7,0.7-1.1s0.6-0.6,0.9-0.8c0.3-0.2,0.7-0.3,1-0.3H50
		c-0.3,0.4-0.6,0.8-1,1.3s-0.8,0.8-1.2,1.2h-6.1c-0.1,0-0.3,0.1-0.3,0.3c-0.1,0.2-0.1,0.3-0.1,0.4v0.1c0,0,0,0,0.1,0.1
		s0.1,0.1,0.1,0.1s0.1,0.1,0.2,0.1c0.1,0,0.1,0.1,0.2,0.1h3.5c0.4,0,0.7,0.1,1,0.3s0.5,0.4,0.7,0.7s0.3,0.6,0.4,0.9
		c0.1,0.3,0.1,0.6,0.1,0.9v0.1c0,0.3-0.1,0.7-0.2,1c-0.1,0.4-0.3,0.7-0.6,1c-0.2,0.3-0.5,0.6-0.8,0.8s-0.6,0.3-1,0.3h-9.4
		c0.1-0.1,0.2-0.3,0.4-0.6s0.4-0.5,0.6-0.8c0.2-0.3,0.4-0.5,0.6-0.7c0.2-0.2,0.3-0.3,0.3-0.3h6.2c0.2,0,0.3-0.1,0.3-0.2
		c0-0.1,0-0.2,0-0.3v0H44.2z"/>
	<path id="XMLID_19_" d="M49.7,209.6l1.5-4.1h3.5c-0.4,1.3-0.8,2.2-1,2.9s-0.4,1.2-0.5,1.6c-0.1,0.3-0.2,0.6-0.2,0.7
		c0,0.1,0,0.2,0,0.2c-0.1,0.2-0.1,0.4-0.1,0.6c0,0.4,0.1,0.8,0.4,1c0.2,0.2,0.5,0.4,0.8,0.4H55c0.3,0,0.6-0.1,0.8-0.2
		c0.3-0.1,0.5-0.3,0.7-0.5s0.4-0.4,0.5-0.6c0.1-0.2,0.3-0.4,0.3-0.6l2-5.5h3.5L61,210c-0.3,0.8-0.6,1.6-0.9,2.2
		c-0.3,0.6-0.7,1.2-1.1,1.6c-0.4,0.4-0.9,0.8-1.4,1s-1.2,0.3-1.9,0.3h-2.2c-0.9,0-1.6-0.1-2.2-0.2c-0.6-0.1-1-0.3-1.4-0.5
		c-0.3-0.2-0.6-0.5-0.7-0.9s-0.2-0.8-0.2-1.3c0-0.1,0-0.3,0-0.4c0-0.1,0-0.3,0.1-0.5c0.1-0.3,0.1-0.6,0.3-0.9
		C49.5,210.4,49.6,210,49.7,209.6z"/>
	<path id="XMLID_21_" d="M63.7,205.5h8.2c0.4,0,0.8,0.1,1.1,0.3c0.3,0.2,0.5,0.4,0.6,0.7s0.2,0.6,0.3,0.9c0,0.3,0.1,0.6,0.1,0.9
		c0,0.6-0.2,1.1-0.5,1.5s-0.7,0.7-1.1,1c-0.5,0.2-1,0.4-1.5,0.5s-1.1,0.2-1.6,0.2l3.6,3.7H69l-3.8-3.5l-0.2,0.1l-1.2,3.3h-3.5
		L63.7,205.5z M70.4,208.3c0-0.1,0-0.2-0.1-0.2c0-0.1-0.1-0.1-0.3-0.1h-3.7l-1,2.9l1.6-1.6h2.9c0.2,0,0.3-0.1,0.4-0.2
		c0.1-0.2,0.1-0.3,0.1-0.4L70.4,208.3L70.4,208.3z"/>
	<path id="XMLID_24_" d="M84,205.5h3.8l-6.5,8.6c-0.1,0.1-0.1,0.2-0.3,0.3c-0.1,0.1-0.2,0.2-0.4,0.4c-0.1,0.1-0.3,0.2-0.4,0.3
		s-0.2,0.1-0.3,0.1h-3c-0.1,0-0.3-0.1-0.3-0.2c-0.1-0.1-0.2-0.3-0.3-0.5c-0.1-0.2-0.1-0.4-0.2-0.6c0-0.2-0.1-0.4-0.1-0.5l-1.1-7.9
		H78l0.9,6.6L84,205.5z"/>
	<path id="XMLID_26_" d="M99.1,205.5c-0.1,0.2-0.2,0.4-0.4,0.7c-0.2,0.3-0.4,0.5-0.6,0.8s-0.4,0.5-0.7,0.7c-0.2,0.2-0.4,0.3-0.5,0.3
		h-5.7l-1,2.9l1.7-1.7h4.2l-2.6,2.5h-3.7l-0.4,1.1h7c0,0,0,0.1-0.1,0.2c0,0.1-0.1,0.2-0.1,0.2c0,0.1-0.1,0.2-0.1,0.2
		c0,0.1-0.1,0.1-0.1,0.1c-0.1,0.1-0.3,0.3-0.5,0.5s-0.4,0.4-0.6,0.6c-0.2,0.2-0.3,0.3-0.5,0.5c-0.1,0.1-0.2,0.2-0.2,0.2H85l3.5-9.7
		h10.6V205.5z"/>
	<path id="XMLID_28_" d="M100.2,205.5h3.5l-3.5,9.7h-3.5L100.2,205.5z"/>
	<path id="XMLID_30_" d="M101.2,215.2l3.5-9.7h3.5l-2.6,7.3h5.8c0,0-0.1,0.1-0.2,0.3c-0.2,0.2-0.3,0.5-0.6,0.7
		c-0.2,0.3-0.5,0.6-0.7,0.8s-0.5,0.5-0.6,0.6L101.2,215.2L101.2,215.2z"/>
	<path id="XMLID_32_" d="M120.9,215.2l-0.4-2.1c0,0.1-0.1,0.2-0.3,0.4c-0.2,0.2-0.3,0.4-0.5,0.7c-0.2,0.2-0.4,0.4-0.6,0.6
		c-0.2,0.2-0.3,0.3-0.4,0.3H111c0-0.1,0-0.1,0-0.1v-0.1l6.6-8.5c0-0.1,0.1-0.2,0.2-0.3s0.2-0.2,0.4-0.4c0.1-0.1,0.3-0.2,0.4-0.3
		s0.2-0.1,0.3-0.1h3.1c0.1,0,0.2,0.1,0.3,0.2c0.1,0.1,0.2,0.3,0.3,0.5c0.1,0.2,0.1,0.4,0.2,0.6c0.1,0.2,0.1,0.4,0.1,0.5l1.2,7.9
		h-3.2V215.2z M116.8,212.8h3.7l-0.6-4.3l-3.1,4.1V212.8z"/>
	<path id="XMLID_35_" d="M128.6,205.5h4.4l1,5.5l2-5.5h3.5l-3.5,9.7h-4.4l-1-5.5l-2,5.5H125L128.6,205.5z"/>
	<path id="XMLID_37_" d="M138.9,210.7c0-0.6,0.1-1.2,0.4-1.8c0.3-0.6,0.6-1.2,1-1.7s0.9-0.9,1.5-1.2s1.2-0.5,1.8-0.5h7.6
		c-0.4,0.5-0.7,0.9-1.1,1.3c-0.4,0.4-0.8,0.8-1.2,1.2h-4.8c-0.2,0-0.3,0.1-0.5,0.2c-0.2,0.1-0.3,0.2-0.5,0.4s-0.3,0.4-0.5,0.6
		c-0.1,0.2-0.2,0.4-0.3,0.6c-0.1,0.3-0.1,0.6-0.1,0.8s0.1,0.5,0.2,0.7c0.1,0.3,0.3,0.5,0.5,0.7s0.4,0.4,0.6,0.6
		c0.2,0.1,0.4,0.2,0.7,0.2h4.4c-0.3,0.4-0.6,0.8-1,1.3c-0.4,0.4-0.8,0.8-1.2,1.2H145c-0.8,0-1.5-0.1-2.2-0.2
		c-0.7-0.1-1.4-0.4-1.9-0.7c-0.6-0.3-1-0.8-1.4-1.4C139,212.4,138.9,211.7,138.9,210.7L138.9,210.7z"/>
	<path id="XMLID_39_" d="M162.7,205.5c-0.1,0.2-0.2,0.4-0.4,0.7s-0.4,0.5-0.6,0.8c-0.2,0.3-0.4,0.5-0.7,0.7
		c-0.2,0.2-0.4,0.3-0.5,0.3h-5.7l-1,2.9l1.7-1.7h4.2l-2.6,2.5h-3.7l-0.4,1.1h7c0,0,0,0.1-0.1,0.2c0,0.1-0.1,0.2-0.1,0.2
		c0,0.1-0.1,0.2-0.1,0.2c0,0.1-0.1,0.1-0.1,0.1c-0.1,0.1-0.3,0.3-0.5,0.5s-0.4,0.4-0.6,0.6c-0.2,0.2-0.3,0.3-0.5,0.5
		c-0.1,0.1-0.2,0.2-0.2,0.2h-9.2l3.5-9.7h10.6V205.5z"/>
	<path id="XMLID_41_" d="M174,212.2V212c0-0.1,0-0.2-0.1-0.3s-0.1-0.2-0.2-0.2H170c-0.4,0-0.7-0.1-1-0.3s-0.5-0.4-0.8-0.7
		c-0.2-0.3-0.4-0.6-0.5-0.9c-0.1-0.3-0.2-0.7-0.2-1s0.1-0.6,0.3-1s0.4-0.7,0.7-1.1s0.6-0.6,0.9-0.8c0.3-0.2,0.7-0.3,1-0.3h9.4
		c-0.3,0.4-0.6,0.8-1,1.3s-0.8,0.8-1.2,1.2h-6.1c-0.1,0-0.3,0.1-0.3,0.3c-0.1,0.2-0.1,0.3-0.1,0.4v0.1c0,0,0,0,0.1,0.1
		s0.1,0.1,0.1,0.1s0.1,0.1,0.2,0.1c0.1,0,0.1,0.1,0.2,0.1h3.5c0.4,0,0.7,0.1,1,0.3s0.5,0.4,0.7,0.7s0.3,0.6,0.4,0.9
		c0.1,0.3,0.1,0.6,0.1,0.9v0.1c0,0.3-0.1,0.7-0.2,1c-0.1,0.4-0.3,0.7-0.6,1c-0.2,0.3-0.5,0.6-0.8,0.8s-0.6,0.3-1,0.3h-9.4
		c0.1-0.1,0.2-0.3,0.4-0.6s0.4-0.5,0.6-0.8c0.2-0.3,0.4-0.5,0.6-0.7c0.2-0.2,0.3-0.3,0.3-0.3h6.2c0.2,0,0.3-0.1,0.3-0.2
		c0-0.1,0-0.2,0-0.3v0H174z"/>
	<path id="XMLID_43_" d="M182.8,210.6l-2.1-5.1h3.9l0.9,2.3l2.6-2.3h3.9l-5.8,5.1l-1.7,4.6H181L182.8,210.6z"/>
	<path id="XMLID_45_" d="M198.2,212.2V212c0-0.1,0-0.2-0.1-0.3s-0.1-0.2-0.2-0.2h-3.7c-0.4,0-0.7-0.1-1-0.3s-0.5-0.4-0.8-0.7
		c-0.2-0.3-0.4-0.6-0.5-0.9c-0.1-0.3-0.2-0.7-0.2-1s0.1-0.6,0.3-1s0.4-0.7,0.7-1.1s0.6-0.6,0.9-0.8c0.3-0.2,0.7-0.3,1-0.3h9.4
		c-0.3,0.4-0.6,0.8-1,1.3s-0.8,0.8-1.2,1.2h-6.1c-0.1,0-0.3,0.1-0.3,0.3c-0.1,0.2-0.1,0.3-0.1,0.4v0.1c0,0,0,0,0.1,0.1
		s0.1,0.1,0.1,0.1s0.1,0.1,0.2,0.1c0.1,0,0.1,0.1,0.2,0.1h3.5c0.4,0,0.7,0.1,1,0.3s0.5,0.4,0.7,0.7s0.3,0.6,0.4,0.9
		c0.1,0.3,0.1,0.6,0.1,0.9v0.1c0,0.3-0.1,0.7-0.2,1c-0.1,0.4-0.3,0.7-0.6,1c-0.2,0.3-0.5,0.6-0.8,0.8s-0.6,0.3-1,0.3h-9.4
		c0.1-0.1,0.2-0.3,0.4-0.6s0.4-0.5,0.6-0.8c0.2-0.3,0.4-0.5,0.6-0.7c0.2-0.2,0.3-0.3,0.3-0.3h6.2c0.2,0,0.3-0.1,0.3-0.2
		c0-0.1,0-0.2,0-0.3v0H198.2z"/>
	<path id="XMLID_47_" d="M207.2,208h-3.5l0,0c0,0,0.1-0.2,0.3-0.4s0.4-0.5,0.6-0.7c0.2-0.3,0.5-0.5,0.7-0.8s0.4-0.4,0.6-0.5h9.2
		c-0.1,0.2-0.2,0.4-0.4,0.7s-0.4,0.5-0.6,0.8c-0.2,0.3-0.4,0.5-0.7,0.7c-0.2,0.2-0.4,0.3-0.5,0.3h-2.2l-2.6,7.3h-3.5L207.2,208z"/>
	<path id="XMLID_49_" d="M226.5,205.5c-0.1,0.2-0.2,0.4-0.4,0.7s-0.4,0.5-0.6,0.8c-0.2,0.3-0.4,0.5-0.7,0.7
		c-0.2,0.2-0.4,0.3-0.5,0.3h-5.7l-1,2.9l1.7-1.7h4.2l-2.6,2.5h-3.7l-0.4,1.1h7c0,0,0,0.1-0.1,0.2c0,0.1-0.1,0.2-0.1,0.2
		c0,0.1-0.1,0.2-0.1,0.2c0,0.1-0.1,0.1-0.1,0.1c-0.1,0.1-0.3,0.3-0.5,0.5s-0.4,0.4-0.6,0.6c-0.2,0.2-0.3,0.3-0.5,0.5
		c-0.1,0.1-0.2,0.2-0.2,0.2h-9.2l3.5-9.7h10.6V205.5z"/>
	<path id="XMLID_52_" d="M234.7,215.2l2-5.5l-5,5.5h-1.3l-1-5.5l-2,5.5h-3.5l3.5-9.7h4.4l0.9,4.9l4.5-4.9h4.4l-3.5,9.7H234.7z"/>
	<path id="XMLID_54_" d="M248,212.2V212c0-0.1,0-0.2-0.1-0.3s-0.1-0.2-0.2-0.2H244c-0.4,0-0.7-0.1-1-0.3s-0.5-0.4-0.8-0.7
		c-0.2-0.3-0.4-0.6-0.5-0.9c-0.1-0.3-0.2-0.7-0.2-1s0.1-0.6,0.3-1s0.4-0.7,0.7-1.1s0.6-0.6,0.9-0.8c0.3-0.2,0.7-0.3,1-0.3h9.4
		c-0.3,0.4-0.6,0.8-1,1.3s-0.8,0.8-1.2,1.2h-6.1c-0.1,0-0.3,0.1-0.3,0.3c-0.1,0.2-0.1,0.3-0.1,0.4v0.1c0,0,0,0,0.1,0.1
		s0.1,0.1,0.1,0.1s0.1,0.1,0.2,0.1c0.1,0,0.1,0.1,0.2,0.1h3.5c0.4,0,0.7,0.1,1,0.3s0.5,0.4,0.7,0.7s0.3,0.6,0.4,0.9
		c0.1,0.3,0.1,0.6,0.1,0.9v0.1c0,0.3-0.1,0.7-0.2,1c-0.1,0.4-0.3,0.7-0.6,1c-0.2,0.3-0.5,0.6-0.8,0.8s-0.6,0.3-1,0.3h-9.4
		c0.1-0.1,0.2-0.3,0.4-0.6s0.4-0.5,0.6-0.8c0.2-0.3,0.4-0.5,0.6-0.7s0.3-0.3,0.3-0.3h6.2c0.2,0,0.3-0.1,0.3-0.2c0-0.1,0-0.2,0-0.3v0
		H248z"/>
</g>
<g id="XMLID_7_">
	<path id="XMLID_150_" d="M48.3,71.7c0.1,0.3,0.2,0.4,0.2,0.5c2.2,2.9,2.2,2.9,5.7,1.7c14.6-5,29.1-9.9,43.7-14.9
		c0.5-0.2,1-0.3,1.7-0.5c0.7,3.9,1.5,7.7,2.2,11.5c0.2,1.3,0.4,2.6,0.7,3.9c0.3,1.2-0.1,1.7-1.2,2.1c-5.3,2.1-10.5,4.2-15.8,6.3
		c-7.8,3.2-15.6,6.4-23.4,9.6c-3.8,1.5-3.7,1.5-5.6-2.1c-3.3-6.3-6.5-12.7-11-18.3c-1-1.3-2.2-1.9-4-1.9c-4.1,0.1-8.2,0-12.3-0.1
		c2.8-0.9,5.6-1.7,8.5-2.6c13.5-4.1,27.1-8.2,40.6-12.2c0.7-0.2,1.5-0.4,2.3-0.4c5,0,10.1,0,15.1,0c1.1,0,2.2,0.1,3,1.4
		C82,61.1,65.2,66.4,48.3,71.7z"/>
	<path id="XMLID_149_" d="M109.7,105.9c0,3.7,0,7.2,0,10.8c-8,0-16,0-24.1,0c0-3.4,0-6.7,0-10c0-1.1,0.8-0.8,1.4-0.8
		c6.4,0,12.8,0,19.2,0C107.2,105.9,108.4,105.9,109.7,105.9z"/>
	<path id="XMLID_148_" d="M69.5,101c0-2.8,0-5.4,0-8.3c-2.4,1-4.7,1.8-6.9,2.9c-4.7,2.5-9.6,3.6-14.9,3.2c-2.5-0.2-5,0-7.5,0
		c-1.6,0-2.4-0.8-2.8-2.3c1.7,2.3,4,1.2,6,1.3c3.3,0.1,6.6,0,9.8,0c2.1,0,2.7-0.8,2.2-2.8c-0.9-3.6-1.9-7.1-2.7-10.8
		c1.5,2.7,2.9,5.5,4.4,8.2c0.9,1.6,1.1,1.8,2.9,1.1c8-3.2,15.9-6.4,23.9-9.6c4.2-1.7,8.4-3.4,12.9-5.2c-0.9,1.6-1.3,3-3.1,3.7
		c-7.2,2.9-14.3,6-21.6,9.2c1.8,1.1,3.5,2.1,5.2,3.2c0.4,0.2,0.8,0.6,1.1,0.9c0.9,1.7,1.8,3.5,2.7,5.3C77.3,101,73.5,101,69.5,101z"
		/>
	<path id="XMLID_147_" d="M45.3,72.7c-4.3,0-8.6,0-12.8,0c-2.7,0-3.4,0.9-2.4,3.5c1.8,4.9,3.6,9.8,5.4,14.7c0.2,0.4,0.3,0.9,0.5,1.3
		c-2.7,1.5-3.2,1.4-5-1c-2.9-4-4.4-8.7-5.7-13.4c-0.4-1.3-0.6-2.7-0.8-4c-0.3-2,0.3-2.8,2.3-2.9c2.8-0.2,5.7-0.2,8.5-0.3
		c1.9-0.1,3.8,0,5.7-0.2C42.8,70.2,44.3,70.6,45.3,72.7z"/>
	<path id="XMLID_146_" d="M84.7,116.7c-0.4,0-0.8,0.1-1.1,0.1c-2.1,0-4.3,0-6.6,0c0-3.2,0-6.4,0-9.6c-0.9,0-1.7,0-2.6,0
		c0,3.1,0,6.3,0,9.5c-1.3,0-2.4,0-3.5,0c0-3.6,0-7.1,0-10.7c4.6,0,9.2,0,13.8,0C84.7,109.6,84.7,113,84.7,116.7z"/>
	<path id="XMLID_143_" d="M47.5,77.9c0.7,1,1.3,1.9,2,2.9c2.2,3.4,3.4,7,2.4,11.1c-0.9,3.7-4,5.5-7.6,4.3c-5.5-1.9-8.5-6.1-9.7-11.6
		c-0.4-1.9-0.3-4,0.2-5.9c0.9-3.4,3.9-4.8,7.3-3.8c1.5,0.5,2.8,1.4,4.1,2.1C46.7,77.3,47.1,77.6,47.5,77.9
		C47.5,77.8,47.5,77.9,47.5,77.9z M40.1,76.8c-0.6,0.2-1.3,0.2-1.9,0.5c-2.3,1.5-3.3,5.6-2.3,8.4c1.1,3.2,2.9,5.9,5.8,7.8
		c1.8,1.1,3.7,1.8,5.8,1c2.2-0.9,3.9-4.7,3.2-7c-0.6-2.1-1.3-4.2-2.7-6.1C45.9,78.7,43.6,76.9,40.1,76.8z"/>
	<path id="XMLID_142_" d="M86.6,86.2c-0.2,1.5-0.3,2.8-0.5,4.1c-0.1,0.3-0.5,0.7-0.9,0.8c-2.9,0.7-4.1,2.1-4.2,4.6
		c0,2.4,1.4,4,4.2,4.6c-0.6,1.3-1.6,1.2-2.7,0.7c-1.7-0.7-2.5-2.2-2.9-3.8c-0.4-1.7-1.4-2.8-2.9-3.5c-1.1-0.5-2-1.2-3.3-1.9
		C77.9,89.8,82.1,88.1,86.6,86.2z"/>
	<path id="XMLID_141_" d="M86.4,105.1c-3.5,0-6.9,0-10.5,0c-0.1-0.7-0.1-1.4-0.2-2.3c-0.8,0-1.5,0-2.4,0c0,0.7-0.1,1.5-0.1,2.3
		c-1.5,0-2.9,0-4.5,0c0-1,0-2,0-3c5.9,0,11.7,0,17.6,0C86.4,103.1,86.4,104,86.4,105.1z"/>
	<path id="XMLID_140_" d="M88.3,95.7c0,1.9-1.5,3.6-3.1,3.6c-1.7,0-3.2-1.7-3.2-3.7c0-1.9,1.5-3.6,3.2-3.6S88.3,93.7,88.3,95.7z"/>
	<path id="XMLID_137_" d="M73.1,118.1c3.6,0,7.1,0,10.6,0c-0.1,2.4-1.9,4.3-4.5,4.6C76.2,123.1,74.1,121.5,73.1,118.1z M74.4,118.5
		c0.4,1.1,0.7,2.1,1.9,2c1.2-0.1,1.5-0.9,1.6-2C76.8,118.5,75.7,118.5,74.4,118.5z"/>
	<path id="XMLID_136_" d="M34.3,77.4c-0.3,0.2-0.7,0.9-1.3,1c-0.9,0.2-2-1.3-1.8-2.6c0.1-0.6,0.7-1.3,1.2-1.4
		C33.4,74.2,34.4,75.6,34.3,77.4z"/>
	<path id="XMLID_135_" d="M51.2,94.9c0.7-0.7,1.1-1.3,1.5-1.4c0.7-0.2,1.8,1,1.6,2c-0.1,0.5-0.7,0.9-1,1.3
		C52.7,96.3,52.1,95.7,51.2,94.9z"/>
	<path id="XMLID_134_" d="M41,95.8c-0.8,0.7-1.2,1-1.6,1.4c-0.5-0.7-1.2-1.3-1.5-2.1c-0.1-0.2,0.7-0.9,1.1-1.3
		C39.6,94.4,40.2,95,41,95.8z"/>
	<path id="XMLID_133_" d="M47.5,77.9C47.5,77.9,47.5,77.8,47.5,77.9c-0.6-0.9-1.3-1.8-0.6-3.2c0.9,1.3,1.6,2.4,2.4,3.5
		c-0.1,0.1-0.2,0.3-0.3,0.4C48.6,78.3,48.1,78.1,47.5,77.9z"/>
	<path id="XMLID_126_" class="st6" d="M74.4,118.5c1.3,0,2.4,0,3.5,0c-0.1,1.1-0.5,1.9-1.6,2C75.1,120.6,74.8,119.7,74.4,118.5z"/>
	<path id="XMLID_123_" d="M44.6,93.6c-1.3,0-2.8-1.1-4.2-2.3c-2.2-1.9-3-4.5-3.4-7.3c-0.4-2.4,1.3-5.2,3.7-5.6
		c1.7-0.3,3.1,0.7,4.4,1.6c2.2,1.6,3.5,4.1,4.1,6.6c0.4,1.5,0.4,3.3-0.5,4.9C47.9,92.9,46.9,93.5,44.6,93.6z M38,84
		c0.1,3.3,2.5,6.9,5.2,7.9c2.4,0.9,4.3-0.1,4.9-2.6c0.7-3.1-1.2-7.1-4-8.7c-1.4-0.8-2.8-1.2-4.3-0.3C38.3,81.2,38.1,82.7,38,84z"/>
	<path id="XMLID_119_" class="st7" d="M46.5,85.7c-0.3,0.3-0.7,1.1-1.4,1.3c-1,0.3-2.2-1.4-2.1-2.8c0-0.9,0.4-1.7,1.4-1.7
		C45.4,82.3,46.5,83.9,46.5,85.7z"/>
</g>
<text transform="matrix(1 0 0 1 81.1501 245.3692)" class="st8 st9">Installations</text>
<g>
	<path class="st10" d="M60.1,515.5c1.4-3.7,2.7-7.2,4-10.7c2.2-5.9,4.4-11.8,6.5-17.7c0.3-0.9,0.7-1.2,1.7-1.1c2.1,0.1,4.2,0,6.3,0
		c1.3,0,1.3,0,0.8,1.3c-1.1,3.1-2.2,6.1-3.4,9.2c-0.3,0.7-0.3,0.9,0.6,0.9c3,0,5.9,0,8.9,0c0.6,0,0.9-0.2,1.1-0.8
		c1.2-3.2,2.4-6.4,3.5-9.6c0.3-0.7,0.6-1,1.4-1c2.3,0.1,4.6,0,6.9,0c0.8,0,0.9,0.2,0.6,0.9c-3.3,8.8-6.6,17.7-9.8,26.6
		c-0.5,1.4-1.5,2.1-2.9,2.1c-2.2,0-4.4,0-6.5,0c-0.1-0.4,0.1-0.7,0.2-1c1.5-4,3-8.1,4.5-12.1c0.3-0.8,0.3-1-0.7-1
		c-2.8,0.1-5.6,0.1-8.4,0c-0.9,0-1.3,0.3-1.5,1.1c-1.5,4.1-3,8.1-4.4,12.1c-0.3,0.7-0.6,1-1.3,0.9C65.5,515.5,62.9,515.5,60.1,515.5
		z"/>
	<path class="st10" d="M124.8,496.6c0.7-0.1,0.9-0.4,1.3-0.7c4.1-3.1,8.2-6.3,12.3-9.5c0.5-0.4,1-0.6,1.7-0.6c1.8,0,3.6,0,5.7,0
		c-1.3,1-2.4,1.9-3.5,2.7c-3.5,2.7-7,5.4-10.5,8c-0.7,0.5-0.7,0.9-0.3,1.6c2.8,5.3,5.5,10.7,8.3,16.1c0.2,0.3,0.4,0.6,0.4,1.1
		c-2.6,0-5.2,0-7.8,0c-1.2,0-1.9-0.8-2.4-1.8c-1.8-3.4-3.5-6.8-5.3-10.3c-0.3-0.7-0.5-0.8-1.2-0.3c-1,0.7-1.7,1.6-2.1,2.8
		c-1,3-2.2,5.9-3.2,8.9c-0.2,0.5-0.4,0.8-1,0.8c-2.5,0-4.9,0-7.4,0c-0.8,0-0.7-0.3-0.5-0.8c3.5-9.4,6.9-18.7,10.4-28.1
		c0.2-0.5,0.5-0.7,1-0.7c2.4,0,4.8,0,7.2,0c0.8,0,0.8,0.2,0.6,0.9C127.2,490,126.1,493.3,124.8,496.6z"/>
	<path class="st11" d="M236.9,515.8c-1.2-0.1-2.6,0.1-4-0.2c-4.1-0.8-6.9-4.5-6.1-8.6c1-5.3,2.8-10.5,6-14.9
		c3.1-4.3,7.4-6.4,12.7-6.5c1.7,0,3.3,0,5,0c4.8,0,8.4,4.1,7.6,8.8c-0.9,5.1-2.7,10-5.6,14.3c-3.1,4.6-7.6,6.9-13.2,7
		C238.6,515.8,237.9,515.8,236.9,515.8z"/>
	<path class="st11" d="M266.8,495.5c-1.8,4.9-3.6,9.8-5.4,14.6c-0.6,1.5-1.1,3.1-1.7,4.6c-0.2,0.6-0.5,0.8-1.1,0.8
		c-1.1-0.1-2.6,0.5-3.1-0.2c-0.6-0.7,0.4-2,0.8-3c3.1-8.4,6.2-16.8,9.3-25.3c0.3-0.9,0.7-1.3,1.6-1.2c1.1,0.1,2.2,0.1,3.3,0
		c0.8,0,1.1,0.3,1.4,0.9c2.3,5.9,4.7,11.9,7,17.8c0.1,0.3,0.3,0.6,0.5,1.2c0.7-1.8,1.3-3.4,1.8-4.9c1.7-4.7,3.5-9.3,5.2-14
		c0.3-0.7,0.6-1.1,1.4-1c0.7,0.1,1.4,0.1,2.1,0c1.1-0.1,1.1,0.3,0.8,1.1c-3.3,8.8-6.5,17.6-9.8,26.5c-0.9,2.5-0.2,1.9-2.9,2
		c-0.5,0-1.1,0-1.6,0c-1.5-0.1-2.3-1-2.8-2.3c-2-5.5-4.1-11-6.1-16.5C267.3,496.3,267.3,495.9,266.8,495.5z"/>
	<path class="st11" d="M158.4,506c0.5-0.3,0.7-0.7,0.9-1.1c4-6,8.1-12,12.1-18.1c0.4-0.6,0.9-1,1.7-0.9c1.2,0.1,2.4,0,3.6,0
		c0,0.5-0.3,0.8-0.5,1.1c-5.9,8.8-11.9,17.6-17.7,26.5c-0.9,1.4-2.1,2.1-3.8,2c-1-0.1-1.9-0.1-2.9,0c-0.7,0-1-0.2-1-0.9
		c-0.2-2.4-0.4-4.7-0.6-7.1c-0.5-6.7-1.1-13.4-1.6-20.1c-0.1-1.5-0.1-1.5,1.3-1.5c1.9,0,3.7,0.1,5.6,0c1.1-0.1,1.4,0.4,1.5,1.4
		C157.4,493.5,157.9,499.7,158.4,506z"/>
	<path class="st11" d="M192.1,515.5c-2.6,0-5.2,0-7.8,0c-0.8,0-1-0.1-0.7-1c1-2.8,1-2.8,3.9-2.8c3.3,0,6.5,0,9.8,0
		c1.2,0,2.1-0.3,2.8-1.4c0.6-1.1,0.4-2.1-0.3-3.2c-1.8-2.6-4.1-4.7-6.1-7.1c-3.1-3.7-2.7-9.1,0.9-12.2c1.6-1.4,3.5-2,5.6-2
		c4.7,0,9.4,0,14.1,0c0.9,0,1,0.2,0.7,1c-1,2.8-1,2.8-3.9,2.8c-3,0-5.9,0-8.9,0c-1.2,0-2.2,0.3-2.8,1.5c-0.6,1.2-0.3,2.2,0.5,3.1
		c1,1.3,2.2,2.5,3.4,3.7c1.2,1.2,2.4,2.4,3.3,3.7c2,2.8,2.5,5.9,0.9,9c-1.6,3.2-4.3,4.8-7.9,4.8C197,515.5,194.5,515.5,192.1,515.5z
		"/>
	<path class="st10" d="M98.5,515.5c-1.1,0-2.3,0-3.4,0c-0.9,0.1-1-0.3-0.7-1.1c2.9-7.8,5.7-15.5,8.6-23.3c0.6-1.5,1.1-3,1.6-4.5
		c0.2-0.6,0.5-0.8,1.1-0.8c2.4,0,4.7,0,7.1,0c0.8,0,0.9,0.2,0.6,0.9c-3.4,9.3-6.9,18.6-10.3,27.9c-0.2,0.6-0.5,0.8-1.1,0.8
		C100.9,515.5,99.7,515.5,98.5,515.5z"/>
	<path class="st11" d="M184.5,485.9c1,0,2,0,3,0c0.9-0.1,1.1,0.2,0.8,1.1c-1.7,4.5-3.4,9.1-5,13.7c-1.7,4.6-3.4,9.2-5.1,13.8
		c-0.3,0.8-0.6,1.1-1.5,1.1c-2.1-0.1-4.2,0-6.3,0c-0.8,0-0.9-0.2-0.7-0.9c3.4-9.3,6.9-18.6,10.3-27.9c0.2-0.6,0.5-0.8,1.2-0.8
		C182.3,486,183.4,485.9,184.5,485.9z"/>
	<path class="st11" d="M214.2,515.5c-1,0-2-0.1-3,0c-1,0.1-1.1-0.3-0.8-1.1c2.3-6.1,4.6-12.3,6.8-18.5c1.1-3,2.3-6,3.3-9.1
		c0.2-0.7,0.5-1,1.3-1c2.1,0.1,4.3,0,6.4,0c0.8,0,0.9,0.2,0.7,0.9c-3.4,9.3-6.9,18.6-10.3,27.9c-0.2,0.6-0.5,0.8-1.1,0.8
		C216.5,515.5,215.4,515.5,214.2,515.5z"/>
	<path class="st12" d="M297.6,488.6c0,1.7-1.3,2.9-3,2.9c-1.7,0-3-1.3-2.9-3c0-1.6,1.3-2.8,2.9-2.9
		C296.3,485.6,297.6,486.9,297.6,488.6z"/>
	<path d="M237.8,512.7c-2.5,0-4-2-3.1-4.3c1.8-5,3.6-10,5.5-15c1.1-3,3.9-4.8,7.1-4.7c2.3,0,3.9,1.9,3.1,4.1
		c-1.8,5.2-3.7,10.4-5.8,15.6C243.5,511.2,240.8,512.7,237.8,512.7z"/>
	<path class="st13" d="M294.6,486.3c1.3,0,2.3,1,2.2,2.3c0,1.3-1,2.2-2.2,2.2c-1.3,0-2.2-0.9-2.2-2.2
		C292.4,487.3,293.3,486.3,294.6,486.3z"/>
	<path class="st14" d="M293.6,488.7c0-1.5,0.5-2,1.8-1.5c0.4,0.1,0.7,0.5,0.5,0.8c-0.4,0.6-0.2,1,0,1.6c0.1,0.2,0.2,0.5-0.2,0.5
		c-0.2,0-0.3-0.1-0.5-0.2c-0.7-0.9-0.7-0.9-1.1,0c-0.1,0.2-0.1,0.3-0.3,0.2c-0.2,0-0.2-0.2-0.2-0.3
		C293.6,489.4,293.6,489,293.6,488.7z"/>
	<path class="st15" d="M294.7,487.6c0.3,0.1,0.5,0.2,0.5,0.5c0,0.3-0.3,0.4-0.6,0.4c-0.3,0-0.4-0.1-0.4-0.4
		C294.2,487.7,294.3,487.5,294.7,487.6z"/>
</g>
<g>
	<path class="st16" d="M144.5,572.7c0.8-2.4,1.5-4.8,2.3-7.1c0.7-2.1,1.3-4.2,2-6.2c0.1-0.2,0.1-0.4,0.4-0.4c2.9,0,5.7,0,8.7,0
		c-0.4,1.4-0.9,2.7-1.3,4.1c-2.1,6.6-4.2,13.2-6.4,19.7c-1.5,4.3-4.6,7.1-9,8.3c-1.9,0.5-3.9,0.4-5.9,0.1c-0.1,0-0.2,0-0.2-0.2
		c1-0.9,2-1.8,2.9-2.8c3.6-4.2,5.3-9,5-14.5c-0.3-5.5-3.3-9.2-8.3-11.3c-3.3-1.4-6.7-1.6-10.2-1.1c-6.3,1-11.7,3.8-16.2,8.3
		c-3,3-5.3,6.6-6.4,10.8c-0.9,3.7-0.9,7.2,0.9,10.7c1.6,3.1,4,5.1,7.2,6.3c4.7,1.8,9.4,1.4,14.1,0c1.7-0.5,3.3-1.2,4.9-2.1
		c0.1,0,0.2-0.1,0.3-0.1c0,0.6,0,1.1,0,1.6c0,0.2-0.1,0.3-0.3,0.4c-3.3,2-6.9,3.3-10.7,4c-2.5,0.4-4.9,0.6-7.4,0.3
		c-5.7-0.7-10.4-3-13.2-8.2c-1.3-2.5-1.8-5.2-1.7-8c0.3-5.4,2.5-10.1,5.8-14.2c5-6.2,11.4-10.3,19.2-12c4.2-1,8.5-1,12.7,0.4
		c4,1.3,7.2,3.8,9.1,7.6C143.9,568.8,144.3,570.7,144.5,572.7z"/>
	<path class="st6" d="M167.5,570.9c0.3,0,0.4-0.2,0.5-0.3c2.8-2.5,6-3.6,9.7-3.2c3.1,0.3,5.2,3.3,4.5,6.3c-0.7,3-1.8,5.8-2.7,8.7
		c-0.9,2.8-1.8,5.7-2.7,8.5c-0.1,0.4-0.3,0.5-0.7,0.5c-2.7,0-5.3,0-8,0c-0.5,0-0.5-0.1-0.4-0.5c1.5-4.6,2.9-9.2,4.5-13.8
		c0.6-1.8-0.7-3.1-2.2-3.1c-2.2,0-3.9,1.2-4.7,3.4c-1.1,3.2-2.1,6.4-3.1,9.6c-0.4,1.3-0.8,2.6-1.2,3.9c-0.1,0.4-0.3,0.5-0.7,0.5
		c-2.6,0-5.3,0-7.9,0c-0.4,0-0.5-0.1-0.4-0.5c3.3-10.5,6.7-20.9,10-31.4c0.1-0.4,0.3-0.5,0.8-0.5c2.6,0,5.2,0,7.8,0
		c0.5,0,0.5,0.1,0.4,0.5c-1.2,3.6-2.3,7.2-3.4,10.8C167.6,570.5,167.6,570.7,167.5,570.9z"/>
	<path class="st6" d="M228,588.2c-1.9,1.4-3.9,2.4-6.2,2.9c-2,0.4-4,0.5-6.1,0.1c-3-0.6-4.7-3.4-3.9-6.4c0.7-2.8,2.6-4.5,5.2-5.7
		c1.9-0.8,3.9-1.2,5.9-1.5c2.8-0.5,5.6-1.1,8.3-1.9c0.4-0.1,0.6-0.3,0.7-0.8c0.4-1.7,0.2-1.7-1.1-2c-2.6-0.7-4.8,0-6.4,2.2
		c-0.2,0.2-0.3,0.2-0.6,0.2c-2.5-0.3-5.1-0.6-7.6-0.8c-0.4,0-0.4-0.2-0.2-0.5c2.5-3.8,5.9-6,10.4-6.6c3.3-0.4,6.6-0.3,9.9,0.3
		c2.9,0.5,5,3,5,6c0,1-0.3,2-0.6,2.9c-1.3,3.9-2.5,7.9-3.8,11.8c-0.3,0.8-0.4,1.6,0,2.4c-0.2,0.1-0.3,0.1-0.5,0.1
		c-2.5,0-5.1,0-7.6,0c-0.4,0-0.5-0.1-0.7-0.5C227.8,589.7,227.9,589,228,588.2z"/>
	<path class="st6" d="M132,590.8c-1.4,0-2.8,0-4.2,0c-1.3,0-2.6,0-3.9,0c-0.4,0-0.5-0.1-0.6-0.4c-0.3-0.7-0.3-1.4-0.1-2.2
		c-1,0.8-2.1,1.4-3.1,1.9c-3,1.4-6.2,1.7-9.4,1.1c-2.8-0.6-4.4-3.5-3.6-6.4c0.8-2.8,2.6-4.5,5.2-5.6c1.9-0.8,3.9-1.2,5.9-1.5
		c2.8-0.5,5.5-1.1,8.2-1.9c0.5-0.1,0.7-0.4,0.8-0.8c0-0.3,0.1-0.6,0.2-0.9c0-0.3,0-0.6-0.4-0.8c-2.5-1-5-0.7-6.8,1.2
		c-0.1,0.1-0.1,0.1-0.1,0.2c-0.3,0.8-0.9,0.7-1.6,0.7c-2.3-0.3-4.6-0.5-6.9-0.8c-0.5,0-0.4-0.2-0.2-0.5c2.5-3.7,5.9-6,10.3-6.6
		c3.3-0.4,6.6-0.3,9.9,0.3c3.7,0.7,6,4.3,4.8,8c-1.3,4.2-2.7,8.4-4.1,12.6C131.7,589.1,131.6,589.9,132,590.8z"/>
	<path class="st6" d="M196.6,590.8c0.3-1,0.6-1.9,1-3c-0.9,0.7-1.6,1.3-2.5,1.8c-2.4,1.4-5,2-7.8,1.8c-0.8-0.1-1.5-0.3-2.2-0.6
		c-1.8-0.9-2.7-2.5-2.5-4.6c0.1-1.5,0.7-2.9,1.1-4.4c1.5-4.7,3-9.3,4.5-14c0.1-0.4,0.3-0.4,0.6-0.4c2.6,0,5.2,0,7.9,0
		c0.5,0,0.6,0.1,0.4,0.5c-1.5,4.6-2.9,9.1-4.4,13.7c0,0,0,0,0,0.1c-0.2,0.8-0.5,1.6,0.1,2.3c0.7,0.7,1.6,0.8,2.5,0.6
		c2.3-0.5,3.8-1.9,4.5-4.1c1.3-4.2,2.7-8.4,4.1-12.6c0.1-0.2,0.1-0.4,0.5-0.4c2.9,0,5.7,0,8.6,0c-0.2,0.7-0.4,1.3-0.6,2
		c-2.3,7-4.6,14-6.8,21.1c-0.1,0.3-0.2,0.5-0.6,0.5C202.2,590.8,199.5,590.8,196.6,590.8z"/>
	<path class="st6" d="M160.1,597.8c0,1,0,2.1,0,3.1c0,0.5-0.2,0.5-0.6,0.5c-0.4,0-0.6,0-0.6-0.5c0-1.6,0-3.3,0-4.9
		c0-0.2-0.2-0.6,0.2-0.6c0.4,0,0.8-0.2,1.1,0.2c0.7,1.1,1.5,2.2,2.2,3.3c0.1,0.1,0.1,0.2,0.3,0.3c0-1.2,0-2.3,0-3.4
		c0-0.5,0.3-0.4,0.6-0.4c0.3,0,0.6-0.1,0.6,0.4c0,1.7,0,3.3,0,5c0,0.2,0.2,0.6-0.1,0.6c-0.4,0-0.9,0.2-1.2-0.3
		c-0.7-1.1-1.5-2.1-2.2-3.2c-0.1-0.1-0.1-0.1-0.2-0.2C160.2,597.8,160.1,597.8,160.1,597.8z"/>
	<path class="st6" d="M188.3,599.9c0,0.3,0,0.7,0,1c0,0.2,0.1,0.6-0.1,0.6c-0.3,0-0.7,0.3-0.9-0.2c-0.1-0.1-0.2,0-0.3,0
		c-0.2,0.1-0.4,0.2-0.7,0.2c-1.7,0.4-3.2-0.7-3.5-2.4c-0.3-1.9,0.7-3.5,2.3-3.8c1.3-0.2,2.5,0.3,2.9,1.3c0.1,0.2,0.3,0.5,0,0.5
		c-0.3,0.1-0.7,0.4-1,0c-0.5-0.7-1.1-0.9-1.9-0.7c-0.7,0.2-1.1,0.8-1.2,1.5c0,0.2,0,0.4,0,0.6c0,0.7,0.2,1.4,0.9,1.7
		c0.7,0.3,1.4,0.2,2.1-0.1c0.4-0.2,0.3-0.5,0.2-0.8c0-0.3-0.3-0.1-0.5-0.1c-0.1,0-0.3,0-0.4,0c-0.6,0-0.8-0.2-0.7-0.8
		c0-0.2,0.2-0.2,0.3-0.2c0.7,0,1.3,0,2,0c0.3,0,0.3,0.1,0.3,0.3C188.3,599,188.3,599.5,188.3,599.9z"/>
	<path class="st6" d="M167.9,601.6c-1.7,0-2.9-1.3-2.9-3.1c0-1.8,1.2-3.2,3-3.1c1.7,0,3,1.4,3,3.2
		C170.9,600.3,169.6,601.6,167.9,601.6z"/>
	<path class="st6" d="M181.9,598.5c0,1.8-1.2,3.1-2.9,3.1c-1.8,0-3-1.3-3-3.1c0.1-1.6,1-3.1,2.9-3.1
		C180.7,595.4,181.9,596.7,181.9,598.5z"/>
	<path class="st6" d="M152.5,598.5c0-0.9,0-1.7,0-2.6c0-0.3,0.1-0.5,0.4-0.4c0.2,0,0.3,0,0.5,0c0.3,0,0.3,0.1,0.3,0.3
		c0,0.5,0,1.1,0,1.6c0,0.3,0,0.4,0.4,0.4c0.6,0,1.2,0,1.9,0c0.3,0,0.4-0.1,0.4-0.4c0-0.4,0-0.8,0-1.3c0-0.7,0-0.7,0.8-0.7
		c0.2,0,0.4-0.1,0.4,0.3c0,1.8,0,3.6,0,5.5c0,0.3-0.1,0.3-0.3,0.3c-0.2,0-0.4,0-0.5,0c-0.3,0-0.3-0.1-0.3-0.3c0-0.6,0-1.2,0-1.9
		c0-0.3-0.1-0.5-0.4-0.4c-0.6,0-1.2,0-1.7,0c-0.3,0-0.5,0.1-0.5,0.4c0,0.6,0,1.2,0,1.7c0,0.4-0.1,0.5-0.5,0.4c-0.1,0-0.1,0-0.2,0
		c-0.4,0.1-0.6-0.1-0.6-0.5C152.6,600.1,152.5,599.3,152.5,598.5z"/>
	<path class="st6" d="M140.8,598.5c0-0.9,0-1.7,0-2.6c0-0.3,0-0.4,0.4-0.4c1.2,0,2.4,0,3.5,0c0.5,0,0.4,0.3,0.4,0.6
		c0,0.3,0,0.6-0.4,0.5c-0.8,0-1.5,0-2.3,0c-0.3,0-0.5,0.1-0.4,0.4c0,0.1,0,0.1,0,0.2c-0.1,0.5,0.1,0.8,0.7,0.7c0.6-0.1,1.2,0,1.9,0
		c0.5,0,0.4,0.3,0.4,0.5c0,0.3,0.1,0.6-0.4,0.5c-0.7,0-1.5,0-2.2,0c-0.3,0-0.4,0.1-0.4,0.4c0,1.3,0,1.3,1.2,1.3c0.5,0,1.1,0,1.6,0
		c0.5,0,0.4,0.3,0.4,0.6c0,0.3,0,0.5-0.4,0.5c-1.2,0-2.4,0-3.6,0c-0.3,0-0.4-0.1-0.4-0.4C140.8,600.2,140.8,599.4,140.8,598.5z"/>
	<path class="st6" d="M148.7,601.6c-1.6,0-2.9-1.3-2.8-3.1c0.1-1.2,0.4-2.3,1.6-2.9c1.4-0.7,3.2-0.1,3.7,1.1
		c0.1,0.3,0.1,0.4-0.2,0.5c-0.1,0-0.2,0-0.3,0.1c-0.4,0.2-0.6,0.1-0.8-0.3c-0.4-0.7-1.5-0.7-2.1-0.2c-0.9,0.8-0.9,2.5,0,3.3
		c0.7,0.7,1.8,0.5,2.2-0.4c0.2-0.4,0.4-0.4,0.7-0.3c0.8,0.3,0.8,0.3,0.4,1C150.6,601.3,149.7,601.6,148.7,601.6z"/>
	<path class="st6" d="M188.6,595.6c1-0.3,1.6,0.1,2,1c0.2,0.4,0.5,0.8,0.7,1.3c0.4-0.6,0.7-1.2,1-1.8c0.2-0.5,0.5-0.7,1-0.6
		c0.2,0,0.4,0,0.7,0c-0.6,1-1.2,2-1.8,2.9c-0.3,0.4-0.4,0.8-0.4,1.3c0,0.4,0,0.8,0,1.2c0.1,0.5-0.1,0.7-0.6,0.7
		c-0.5,0-0.7-0.1-0.6-0.6c0.2-1.3-0.2-2.5-1-3.6C189.3,596.8,189,596.2,188.6,595.6z"/>
	<path class="st6" d="M137.3,595.5c0.7,0,1.3,0,2,0c0.4,0,0.4,0.2,0.3,0.4c0,0.2,0.2,0.6-0.3,0.6c0,0,0,0-0.1,0
		c-0.4,0-1-0.2-1.3,0.1c-0.3,0.3-0.1,0.9-0.1,1.4c0,1,0,2,0,3.1c0,0.3-0.1,0.5-0.4,0.5c-0.8,0-0.8,0-0.8-0.8c0-1.2,0-2.5,0-3.7
		c0-0.3-0.1-0.5-0.4-0.5c-0.2,0-0.4,0-0.5,0c-0.7,0-0.8-0.2-0.7-0.9c0-0.2,0.2-0.2,0.3-0.2C136,595.5,136.7,595.5,137.3,595.5z"/>
	<path class="st6" d="M171.8,598.6c0-0.9,0-1.7,0-2.6c0-0.3,0.1-0.5,0.4-0.5c0.8,0,0.8,0,0.8,0.8c0,1.3,0,2.5,0,3.8
		c0,0.3,0.1,0.4,0.4,0.4c0.6,0,1.3,0,1.9,0c0.5,0,0.3,0.3,0.3,0.5c0,0.2,0.2,0.5-0.3,0.5c-1.1,0-2.1,0-3.2,0c-0.3,0-0.3-0.1-0.3-0.3
		C171.8,600.3,171.8,599.4,171.8,598.6z"/>
	<path d="M230.3,579.9c-0.7,3.1-2.3,5.4-5.5,6.2c-0.7,0.2-1.5,0.3-2.3,0.2c-1.4-0.2-2.1-1.5-1.3-2.8c0.6-1,1.5-1.5,2.6-1.8
		c1.4-0.5,2.9-0.8,4.3-1.2C228.8,580.3,229.5,580.1,230.3,579.9z"/>
	<path d="M125.4,579.9c-0.4,1.7-1,3.1-2.1,4.3c-1.5,1.5-3.4,2.3-5.6,2.2c-1.6-0.1-2.3-1.6-1.4-2.9c0.5-0.8,1.3-1.3,2.2-1.6
		C120.7,581,123.1,580.7,125.4,579.9z"/>
	<path d="M169.7,598.5c0,1.3-0.8,2.1-1.9,2c-0.1,0-0.1,0-0.2,0c-0.9-0.2-1.4-1.2-1.3-2.4c0.1-1,0.8-1.7,1.7-1.7
		C169,596.5,169.7,597.3,169.7,598.5z"/>
	<path d="M178.9,596.5c1,0,1.7,0.8,1.7,2c0,1.2-0.7,2.1-1.7,2.1c-1,0-1.8-0.8-1.8-2C177.2,597.3,177.9,596.5,178.9,596.5z"/>
</g>
<g>
	<path class="st6" d="M148.4,435.7h5.5c0.2,0,0.4,0.1,0.6,0.2c0.2,0.1,0.3,0.3,0.4,0.5s0.2,0.4,0.2,0.6c0,0.2,0.1,0.4,0.1,0.5
		c0,0.3-0.1,0.6-0.2,0.9s-0.4,0.5-0.6,0.7c-0.2,0.2-0.5,0.4-0.8,0.5c-0.3,0.1-0.6,0.2-0.9,0.2h-3.4l-0.8,2.3h-2.3L148.4,435.7z
		 M149.5,439.2l1.2-1h1.9c0,0,0,0,0.1-0.1c0,0,0.1-0.1,0.1-0.1c0,0,0.1-0.1,0.1-0.1c0,0,0-0.1,0.1-0.1l0-0.1c0,0,0,0,0-0.1
		c0,0-0.1-0.1-0.1-0.2c-0.1-0.1-0.1-0.1-0.1-0.1h-2.5L149.5,439.2z"/>
	<path class="st6" d="M156.5,435.7h5.4c0.3,0,0.5,0.1,0.7,0.2c0.2,0.1,0.3,0.3,0.4,0.5c0.1,0.2,0.2,0.4,0.2,0.6c0,0.2,0,0.4,0,0.6
		c0,0.4-0.1,0.7-0.3,1c-0.2,0.3-0.4,0.5-0.8,0.6c-0.3,0.2-0.6,0.3-1,0.3c-0.4,0.1-0.7,0.1-1,0.1l2.4,2.4h-2.6l-2.5-2.3l-0.1,0.1
		l-0.8,2.2h-2.3L156.5,435.7z M160.9,437.6c0-0.1,0-0.1,0-0.2s-0.1-0.1-0.2-0.1h-2.4l-0.7,1.9l1.1-1.1h1.9c0.1,0,0.2-0.1,0.3-0.2
		c0.1-0.1,0.1-0.2,0.1-0.3V437.6z"/>
	<path class="st6" d="M171.4,440c-0.2,0.4-0.5,0.8-0.9,1.1s-0.8,0.6-1.2,0.8c-0.4,0.2-0.9,0.3-1.4,0.3h-1.4c-0.4,0-0.8,0-1.2-0.1
		c-0.4-0.1-0.7-0.2-1-0.4s-0.5-0.4-0.6-0.7c-0.2-0.3-0.2-0.7-0.2-1.1c0-0.1,0-0.2,0-0.3c0-0.1,0-0.2,0-0.3c0.1-0.4,0.2-0.9,0.4-1.3
		s0.5-0.8,0.9-1.1c0.3-0.3,0.7-0.6,1.1-0.8c0.4-0.2,0.8-0.3,1.3-0.3h1.8c0.5,0,0.9,0,1.2,0.1c0.4,0.1,0.7,0.2,0.9,0.4
		c0.3,0.2,0.5,0.4,0.6,0.7c0.1,0.3,0.2,0.6,0.2,1c0,0.1,0,0.2,0,0.3s0,0.2,0,0.4C171.8,439.1,171.6,439.5,171.4,440z M165.7,439.1
		L165.7,439.1c0,0.2,0,0.4,0.1,0.5s0.1,0.3,0.2,0.4s0.2,0.2,0.3,0.3s0.3,0.1,0.4,0.1h1c0.1,0,0.2,0,0.3-0.1c0.1-0.1,0.3-0.2,0.5-0.3
		c0.2-0.1,0.3-0.2,0.5-0.4c0.1-0.1,0.3-0.3,0.3-0.4c0.1-0.1,0.1-0.2,0.1-0.3l0-0.1c0-0.1,0-0.1,0-0.1c0-0.1,0-0.1,0-0.2s0-0.1,0-0.2
		c0-0.1,0-0.3,0-0.4s-0.1-0.2-0.1-0.3c-0.1-0.1-0.2-0.2-0.3-0.2c-0.1-0.1-0.3-0.1-0.5-0.1h-1.2c-0.1,0-0.3,0-0.4,0.1
		s-0.3,0.2-0.4,0.3c-0.1,0.1-0.3,0.2-0.4,0.4c-0.1,0.1-0.2,0.3-0.3,0.4c0,0.1-0.1,0.2-0.1,0.3C165.8,438.9,165.7,439,165.7,439.1
		C165.7,439,165.7,439.1,165.7,439.1z"/>
	<path class="st6" d="M179.4,439.2c-0.3,0.5-0.7,1-1,1.3c-0.3,0.4-0.7,0.7-1.1,0.9c-0.4,0.2-0.8,0.4-1.3,0.5c-0.5,0.1-1,0.2-1.7,0.2
		h-3l2.3-6.4h5.2c0.5,0,0.8,0.1,1,0.4s0.3,0.6,0.3,1c0,0.3-0.1,0.7-0.2,1S179.7,438.9,179.4,439.2z M175.3,437.4l-1.1,3.1h0.3
		c0.2,0,0.5,0,0.7-0.1s0.5-0.2,0.8-0.3c0.2-0.1,0.5-0.3,0.7-0.5c0.2-0.2,0.4-0.3,0.5-0.5c0-0.1,0.1-0.1,0.2-0.2s0.1-0.2,0.1-0.3
		c0-0.1,0.1-0.3,0.1-0.4c0-0.1,0.1-0.2,0.1-0.3c0-0.1,0-0.3-0.1-0.3c-0.1-0.1-0.2-0.1-0.3-0.1H175.3z"/>
	<path class="st6" d="M180.5,438.4l0.9-2.7h2.3c-0.3,0.8-0.5,1.5-0.6,1.9c-0.2,0.5-0.3,0.8-0.3,1c-0.1,0.2-0.1,0.4-0.1,0.4
		c0,0.1,0,0.1,0,0.1c0,0.2-0.1,0.3-0.1,0.4c0,0.3,0.1,0.5,0.2,0.7c0.2,0.2,0.3,0.2,0.5,0.2h0.6c0.2,0,0.4,0,0.5-0.1s0.3-0.2,0.4-0.3
		s0.2-0.2,0.3-0.4c0.1-0.1,0.2-0.3,0.2-0.4l1.3-3.6h2.3l-1.1,3c-0.2,0.6-0.4,1-0.6,1.5c-0.2,0.4-0.4,0.8-0.7,1.1
		c-0.3,0.3-0.6,0.5-0.9,0.7c-0.3,0.1-0.8,0.2-1.2,0.2H183c-0.6,0-1,0-1.4-0.1c-0.4-0.1-0.7-0.2-0.9-0.3c-0.2-0.1-0.4-0.3-0.5-0.6
		c-0.1-0.2-0.1-0.5-0.1-0.8c0-0.1,0-0.2,0-0.3c0-0.1,0-0.2,0-0.3c0-0.2,0.1-0.4,0.2-0.6C180.4,438.9,180.5,438.7,180.5,438.4z"/>
	<path class="st6" d="M188.5,439.2c0-0.4,0.1-0.8,0.3-1.2s0.4-0.8,0.7-1.1s0.6-0.6,1-0.8s0.8-0.3,1.2-0.3h5
		c-0.2,0.3-0.5,0.6-0.7,0.9c-0.2,0.3-0.5,0.5-0.8,0.8H192c-0.1,0-0.2,0-0.3,0.1c-0.1,0.1-0.2,0.2-0.3,0.3c-0.1,0.1-0.2,0.2-0.3,0.4
		c-0.1,0.1-0.2,0.3-0.2,0.4c-0.1,0.2-0.1,0.4-0.1,0.5c0,0.2,0,0.3,0.1,0.5s0.2,0.3,0.3,0.5s0.3,0.3,0.4,0.4c0.1,0.1,0.3,0.1,0.4,0.1
		h2.9c-0.2,0.3-0.4,0.5-0.6,0.8s-0.5,0.5-0.8,0.8h-1c-0.5,0-1,0-1.5-0.1s-0.9-0.2-1.3-0.5s-0.7-0.5-0.9-0.9S188.5,439.8,188.5,439.2
		L188.5,439.2z"/>
	<path class="st6" d="M198.5,437.4h-2.3v0c0,0,0.1-0.1,0.2-0.3c0.1-0.1,0.2-0.3,0.4-0.5c0.1-0.2,0.3-0.3,0.5-0.5
		c0.2-0.2,0.3-0.3,0.4-0.4h6c-0.1,0.1-0.1,0.3-0.3,0.4c-0.1,0.2-0.3,0.4-0.4,0.5s-0.3,0.3-0.4,0.5s-0.2,0.2-0.3,0.2h-1.4l-1.7,4.7
		h-2.3L198.5,437.4z"/>
	<path class="st6" d="M207.7,440.1L207.7,440.1c0-0.1,0-0.2,0-0.3c0-0.1-0.1-0.1-0.1-0.1h-2.4c-0.2,0-0.5-0.1-0.6-0.2
		c-0.2-0.1-0.4-0.3-0.5-0.4c-0.1-0.2-0.2-0.4-0.3-0.6c-0.1-0.2-0.1-0.4-0.1-0.6c0-0.2,0.1-0.4,0.2-0.7c0.1-0.2,0.3-0.5,0.4-0.7
		c0.2-0.2,0.4-0.4,0.6-0.6c0.2-0.1,0.4-0.2,0.7-0.2h6.1c-0.2,0.3-0.4,0.5-0.6,0.8c-0.2,0.3-0.5,0.5-0.8,0.8h-4
		c-0.1,0-0.2,0.1-0.2,0.2c-0.1,0.1-0.1,0.2-0.1,0.3v0.1c0,0,0,0,0,0.1c0,0,0.1,0,0.1,0.1c0,0,0.1,0.1,0.1,0.1c0.1,0,0.1,0,0.1,0h2.3
		c0.3,0,0.5,0.1,0.7,0.2s0.3,0.3,0.5,0.5c0.1,0.2,0.2,0.4,0.3,0.6c0.1,0.2,0.1,0.4,0.1,0.6v0.1c0,0.2,0,0.4-0.1,0.7
		c-0.1,0.2-0.2,0.5-0.4,0.7c-0.2,0.2-0.3,0.4-0.5,0.5c-0.2,0.1-0.4,0.2-0.6,0.2h-6.1c0-0.1,0.1-0.2,0.2-0.4s0.3-0.4,0.4-0.5
		s0.3-0.3,0.4-0.5c0.1-0.1,0.2-0.2,0.2-0.2h4.1c0.1,0,0.2,0,0.2-0.1S207.7,440.2,207.7,440.1L207.7,440.1z"/>
</g>
<g id="XMLID_4_">
	<path id="XMLID_36_" d="M245.6,54.2c0.8-1.3,1.9-1.4,3-1.4c5,0,10.1,0,15.1,0c0.8,0,1.6,0.2,2.3,0.4c13.5,4,27.1,8.1,40.6,12.2
		c2.9,0.9,5.7,1.7,8.5,2.6c-4.1,0.1-8.2,0.2-12.3,0.1c-1.8,0-3,0.6-4,1.9c-4.5,5.6-7.7,12-11,18.3c-1.9,3.6-1.8,3.6-5.6,2.1
		c-7.8-3.2-15.6-6.4-23.4-9.6c-5.3-2.1-10.5-4.2-15.8-6.3c-1.1-0.4-1.5-0.9-1.2-2.1c0.3-1.3,0.5-2.6,0.7-3.9
		c0.7-3.8,1.5-7.6,2.2-11.5c0.7,0.2,1.2,0.3,1.7,0.5c14.6,5,29.1,9.9,43.7,14.9c3.5,1.2,3.5,1.2,5.7-1.7c0-0.1,0.1-0.2,0.2-0.5
		C279.1,64.9,262.3,59.6,245.6,54.2z"/>
	<path id="XMLID_34_" d="M238.1,104.4c6.4,0,12.8,0,19.2,0c0.6,0,1.4-0.3,1.4,0.8c0,3.3,0,6.6,0,10c-8.1,0-16.1,0-24.1,0
		c0-3.6,0-7.1,0-10.8C235.9,104.4,237.1,104.4,238.1,104.4z"/>
	<path id="XMLID_33_" d="M263.2,99.5c0.9-1.8,1.8-3.6,2.7-5.3c0.3-0.3,0.7-0.7,1.1-0.9c1.7-1.1,3.4-2.1,5.2-3.2
		c-7.3-3.2-14.4-6.3-21.6-9.2c-1.8-0.7-2.2-2.1-3.1-3.7c4.5,1.8,8.7,3.5,12.9,5.2c8,3.2,15.9,6.4,23.9,9.6c1.8,0.7,2,0.5,2.9-1.1
		c1.5-2.7,2.9-5.5,4.4-8.2c-0.8,3.7-1.8,7.2-2.7,10.8c-0.5,2,0.1,2.8,2.2,2.8c3.2,0,6.5,0.1,9.8,0c2-0.1,4.3,1,6-1.3
		c-0.4,1.5-1.2,2.3-2.8,2.3c-2.5,0-5-0.2-7.5,0c-5.3,0.4-10.2-0.7-14.9-3.2c-2.2-1.1-4.5-1.9-6.9-2.9c0,2.9,0,5.5,0,8.3
		C270.8,99.5,267,99.5,263.2,99.5z"/>
	<path id="XMLID_31_" d="M303.3,68.9c1.9,0.2,3.8,0.1,5.7,0.2c2.8,0.1,5.7,0.1,8.5,0.3c2,0.1,2.6,0.9,2.3,2.9
		c-0.2,1.3-0.4,2.7-0.8,4c-1.3,4.7-2.8,9.4-5.7,13.4c-1.8,2.4-2.3,2.5-5,1c0.2-0.4,0.3-0.9,0.5-1.3c1.8-4.9,3.6-9.8,5.4-14.7
		c1-2.6,0.3-3.5-2.4-3.5c-4.2,0-8.5,0-12.8,0C300,69.1,301.5,68.7,303.3,68.9z"/>
	<path id="XMLID_29_" d="M259.6,104.5c4.6,0,9.2,0,13.8,0c0,3.6,0,7.1,0,10.7c-1.1,0-2.2,0-3.5,0c0-3.2,0-6.4,0-9.5
		c-0.9,0-1.7,0-2.6,0c0,3.2,0,6.4,0,9.6c-2.3,0-4.5,0-6.6,0c-0.3,0-0.7-0.1-1.1-0.1C259.6,111.5,259.6,108.1,259.6,104.5z"/>
	<path id="XMLID_27_" d="M296.8,76.4c0.4-0.3,0.8-0.6,1.3-0.9c1.3-0.7,2.6-1.6,4.1-2.1c3.4-1,6.4,0.4,7.3,3.8c0.5,1.9,0.6,4,0.2,5.9
		c-1.2,5.5-4.2,9.7-9.7,11.6c-3.6,1.2-6.7-0.6-7.6-4.3c-1-4.1,0.2-7.7,2.4-11.1C295.5,78.3,296.1,77.4,296.8,76.4
		C296.8,76.4,296.8,76.3,296.8,76.4z M296.3,79.9c-1.4,1.9-2.1,4-2.7,6.1c-0.7,2.3,1,6.1,3.2,7c2.1,0.8,4,0.1,5.8-1
		c2.9-1.9,4.7-4.6,5.8-7.8c1-2.8,0-6.9-2.3-8.4c-0.6-0.3-1.3-0.3-1.9-0.5C300.7,75.4,298.4,77.2,296.3,79.9z"/>
	<path id="XMLID_25_" d="M270.9,90.3c-1.3,0.7-2.2,1.4-3.3,1.9c-1.5,0.7-2.5,1.8-2.9,3.5c-0.4,1.6-1.2,3.1-2.9,3.8
		c-1.1,0.5-2.1,0.6-2.7-0.7c2.8-0.6,4.2-2.2,4.2-4.6c-0.1-2.5-1.3-3.9-4.2-4.6c-0.4-0.1-0.8-0.5-0.9-0.8c-0.2-1.3-0.3-2.6-0.5-4.1
		C262.2,86.6,266.4,88.3,270.9,90.3z"/>
	<path id="XMLID_23_" d="M258,100.6c5.9,0,11.7,0,17.6,0c0,1,0,2,0,3c-1.6,0-3,0-4.5,0c0-0.8-0.1-1.6-0.1-2.3c-0.9,0-1.6,0-2.4,0
		c-0.1,0.9-0.1,1.6-0.2,2.3c-3.6,0-7,0-10.5,0C257.9,102.5,257.9,101.6,258,100.6z"/>
	<path id="XMLID_22_" d="M259.1,90.5c1.7,0,3.2,1.7,3.2,3.6c0,2-1.5,3.7-3.2,3.7c-1.6,0-3.1-1.7-3.1-3.6
		C256,92.2,257.4,90.5,259.1,90.5z"/>
	<path id="XMLID_20_" d="M265.1,121.2c-2.6-0.3-4.4-2.2-4.5-4.6c3.5,0,7,0,10.6,0C270.2,120,268.1,121.6,265.1,121.2z M266.4,117
		c0.1,1.1,0.4,1.9,1.6,2c1.2,0.1,1.5-0.9,1.9-2C268.6,117,267.5,117,266.4,117z"/>
	<path id="XMLID_18_" d="M311.9,72.9c0.5,0.1,1.1,0.8,1.2,1.4c0.2,1.3-0.9,2.8-1.8,2.6c-0.6-0.1-1-0.8-1.3-1
		C309.9,74.1,310.9,72.7,311.9,72.9z"/>
	<path id="XMLID_16_" d="M291,95.3c-0.3-0.4-0.9-0.8-1-1.3c-0.2-1,0.9-2.2,1.6-2c0.4,0.1,0.8,0.7,1.5,1.4
		C292.2,94.2,291.6,94.8,291,95.3z"/>
	<path id="XMLID_14_" d="M305.3,92.3c0.4,0.4,1.2,1.1,1.1,1.3c-0.3,0.8-1,1.4-1.5,2.1c-0.4-0.4-0.8-0.7-1.6-1.4
		C304.1,93.5,304.7,92.9,305.3,92.3z"/>
	<path id="XMLID_13_" d="M295.3,77.1c-0.1-0.1-0.2-0.3-0.3-0.4c0.8-1.1,1.5-2.2,2.4-3.5c0.7,1.4,0,2.3-0.6,3.2c0-0.1,0,0,0,0
		C296.2,76.6,295.7,76.8,295.3,77.1z"/>
	<path id="XMLID_11_" class="st6" d="M268,119c-1.1-0.1-1.5-0.9-1.6-2c1.1,0,2.2,0,3.5,0C269.5,118.2,269.2,119.1,268,119z"/>
	<path id="XMLID_6_" d="M295.6,90c-0.9-1.6-0.9-3.4-0.5-4.9c0.6-2.5,1.9-5,4.1-6.6c1.3-0.9,2.7-1.9,4.4-1.6c2.4,0.4,4.1,3.2,3.7,5.6
		c-0.4,2.8-1.2,5.4-3.4,7.3c-1.4,1.2-2.9,2.3-4.2,2.3C297.4,92,296.4,91.4,295.6,90z M304.5,78.8c-1.5-0.9-2.9-0.5-4.3,0.3
		c-2.8,1.6-4.7,5.6-4,8.7c0.6,2.5,2.5,3.5,4.9,2.6c2.7-1,5.1-4.6,5.2-7.9C306.2,81.2,306,79.7,304.5,78.8z"/>
	<path id="XMLID_5_" class="st7" d="M299.9,81c1,0,1.4,0.8,1.4,1.7c0.1,1.4-1.1,3.1-2.1,2.8c-0.7-0.2-1.1-1-1.4-1.3
		C297.8,82.4,298.9,80.8,299.9,81z"/>
</g>
</svg>
